<svg width="287" height="372" viewBox="0 0 287 272" fill="none" xmlns="http://www.w3.org/2000/svg" >
<path d="M2.03409 35V0.0909081H25.1477V6.17614H9.41477V14.4943H23.6136V20.5795H9.41477V35H2.03409ZM29.554 35V8.81818H36.5938V13.3864H36.8665C37.3438 11.7614 38.1449 10.5341 39.2699 9.70455C40.3949 8.86364 41.6903 8.44318 43.1562 8.44318C43.5199 8.44318 43.9119 8.46591 44.3324 8.51136C44.7528 8.55682 45.1222 8.61932 45.4403 8.69886V15.142C45.0994 15.0398 44.6278 14.9489 44.0256 14.8693C43.4233 14.7898 42.8722 14.75 42.3722 14.75C41.304 14.75 40.3494 14.983 39.5085 15.4489C38.679 15.9034 38.0199 16.5398 37.5312 17.358C37.054 18.1761 36.8153 19.1193 36.8153 20.1875V35H29.554ZM59.9077 35.5114C57.2145 35.5114 54.8963 34.9659 52.9531 33.875C51.0213 32.7727 49.5327 31.2159 48.4872 29.2045C47.4418 27.1818 46.919 24.7898 46.919 22.0284C46.919 19.3352 47.4418 16.9716 48.4872 14.9375C49.5327 12.9034 51.0043 11.3182 52.902 10.1818C54.8111 9.04545 57.0497 8.47727 59.6179 8.47727C61.3452 8.47727 62.9531 8.75568 64.4418 9.3125C65.9418 9.85795 67.2486 10.6818 68.3622 11.7841C69.4872 12.8864 70.3622 14.2727 70.9872 15.9432C71.6122 17.6023 71.9247 19.5455 71.9247 21.7727V23.767H49.8168V19.267H65.0895C65.0895 18.2216 64.8622 17.2955 64.4077 16.4886C63.9531 15.6818 63.3224 15.0511 62.5156 14.5966C61.7202 14.1307 60.794 13.8977 59.7372 13.8977C58.6349 13.8977 57.6577 14.1534 56.8054 14.6648C55.9645 15.1648 55.3054 15.8409 54.8281 16.6932C54.3509 17.5341 54.1065 18.4716 54.0952 19.5057V23.7841C54.0952 25.0795 54.3338 26.1989 54.8111 27.142C55.2997 28.0852 55.9872 28.8125 56.8736 29.3239C57.7599 29.8352 58.8111 30.0909 60.027 30.0909C60.8338 30.0909 61.5724 29.9773 62.2429 29.75C62.9134 29.5227 63.4872 29.1818 63.9645 28.7273C64.4418 28.2727 64.8054 27.7159 65.0554 27.0568L71.7713 27.5C71.4304 29.1136 70.7315 30.5227 69.6747 31.7273C68.6293 32.9205 67.277 33.8523 65.6179 34.5227C63.9702 35.1818 62.0668 35.5114 59.9077 35.5114ZM93.9645 44.8182V30.8068H93.7429C93.402 31.5341 92.919 32.2557 92.294 32.9716C91.6804 33.6761 90.8793 34.2614 89.8906 34.7273C88.9134 35.1932 87.7202 35.4261 86.3111 35.4261C84.3224 35.4261 82.5213 34.9148 80.9077 33.892C79.3054 32.858 78.0327 31.3409 77.0895 29.3409C76.1577 27.3295 75.6918 24.8636 75.6918 21.9432C75.6918 18.9432 76.1747 16.4489 77.1406 14.4602C78.1065 12.4602 79.3906 10.9659 80.9929 9.97727C82.6065 8.97727 84.3736 8.47727 86.294 8.47727C87.7599 8.47727 88.9815 8.72727 89.9588 9.22727C90.9474 9.71591 91.7429 10.3295 92.3452 11.0682C92.9588 11.7955 93.4247 12.5114 93.7429 13.2159H94.0497V8.81818H101.209V44.8182H93.9645ZM88.6122 29.6477C89.7827 29.6477 90.7713 29.3295 91.5781 28.6932C92.3963 28.0455 93.0213 27.142 93.4531 25.983C93.8963 24.8239 94.1179 23.4659 94.1179 21.9091C94.1179 20.3523 93.902 19 93.4702 17.8523C93.0384 16.7045 92.4134 15.8182 91.5952 15.1932C90.777 14.5682 89.7827 14.2557 88.6122 14.2557C87.419 14.2557 86.4134 14.5795 85.5952 15.2273C84.777 15.875 84.1577 16.7727 83.7372 17.9205C83.3168 19.0682 83.1065 20.3977 83.1065 21.9091C83.1065 23.4318 83.3168 24.7784 83.7372 25.9489C84.169 27.108 84.7884 28.017 85.5952 28.6761C86.4134 29.3239 87.419 29.6477 88.6122 29.6477ZM123.828 23.8523V8.81818H131.089V35H124.118V30.2443H123.845C123.254 31.7784 122.271 33.0114 120.896 33.9432C119.533 34.875 117.868 35.3409 115.902 35.3409C114.152 35.3409 112.612 34.9432 111.283 34.1477C109.953 33.3523 108.913 32.2216 108.163 30.7557C107.425 29.2898 107.05 27.5341 107.038 25.4886V8.81818H114.3V24.1932C114.311 25.7386 114.726 26.9602 115.544 27.858C116.362 28.7557 117.459 29.2045 118.834 29.2045C119.709 29.2045 120.527 29.0057 121.288 28.608C122.05 28.1989 122.663 27.5966 123.129 26.8011C123.607 26.0057 123.839 25.0227 123.828 23.8523ZM148.83 35.5114C146.136 35.5114 143.818 34.9659 141.875 33.875C139.943 32.7727 138.455 31.2159 137.409 29.2045C136.364 27.1818 135.841 24.7898 135.841 22.0284C135.841 19.3352 136.364 16.9716 137.409 14.9375C138.455 12.9034 139.926 11.3182 141.824 10.1818C143.733 9.04545 145.972 8.47727 148.54 8.47727C150.267 8.47727 151.875 8.75568 153.364 9.3125C154.864 9.85795 156.17 10.6818 157.284 11.7841C158.409 12.8864 159.284 14.2727 159.909 15.9432C160.534 17.6023 160.847 19.5455 160.847 21.7727V23.767H138.739V19.267H154.011C154.011 18.2216 153.784 17.2955 153.33 16.4886C152.875 15.6818 152.244 15.0511 151.438 14.5966C150.642 14.1307 149.716 13.8977 148.659 13.8977C147.557 13.8977 146.58 14.1534 145.727 14.6648C144.886 15.1648 144.227 15.8409 143.75 16.6932C143.273 17.5341 143.028 18.4716 143.017 19.5057V23.7841C143.017 25.0795 143.256 26.1989 143.733 27.142C144.222 28.0852 144.909 28.8125 145.795 29.3239C146.682 29.8352 147.733 30.0909 148.949 30.0909C149.756 30.0909 150.494 29.9773 151.165 29.75C151.835 29.5227 152.409 29.1818 152.886 28.7273C153.364 28.2727 153.727 27.7159 153.977 27.0568L160.693 27.5C160.352 29.1136 159.653 30.5227 158.597 31.7273C157.551 32.9205 156.199 33.8523 154.54 34.5227C152.892 35.1818 150.989 35.5114 148.83 35.5114ZM172.847 19.8636V35H165.585V8.81818H172.506V13.4375H172.812C173.392 11.9148 174.364 10.7102 175.727 9.82386C177.091 8.92614 178.744 8.47727 180.688 8.47727C182.506 8.47727 184.091 8.875 185.443 9.67045C186.795 10.4659 187.847 11.6023 188.597 13.0795C189.347 14.5455 189.722 16.2955 189.722 18.3295V35H182.46V19.625C182.472 18.0227 182.063 16.7727 181.233 15.875C180.403 14.9659 179.261 14.5114 177.807 14.5114C176.83 14.5114 175.966 14.7216 175.216 15.142C174.477 15.5625 173.898 16.1761 173.477 16.983C173.068 17.7784 172.858 18.7386 172.847 19.8636ZM209.371 8.81818V14.2727H193.604V8.81818H209.371ZM197.183 2.54545H204.445V26.9545C204.445 27.625 204.547 28.1477 204.751 28.5227C204.956 28.8864 205.24 29.142 205.604 29.2898C205.979 29.4375 206.411 29.5114 206.899 29.5114C207.24 29.5114 207.581 29.483 207.922 29.4261C208.263 29.358 208.524 29.3068 208.706 29.2727L209.848 34.6761C209.484 34.7898 208.973 34.9205 208.314 35.0682C207.655 35.2273 206.854 35.3239 205.911 35.358C204.161 35.4261 202.626 35.1932 201.308 34.6591C200.001 34.125 198.984 33.2955 198.257 32.1705C197.53 31.0455 197.172 29.625 197.183 27.9091V2.54545ZM221.925 0.0909081V35H214.663V0.0909081H221.925ZM232.224 44.8182C231.304 44.8182 230.44 44.7443 229.634 44.5966C228.838 44.4602 228.179 44.2841 227.656 44.0682L229.293 38.6477C230.145 38.9091 230.912 39.0511 231.594 39.0739C232.287 39.0966 232.884 38.9375 233.384 38.5966C233.895 38.2557 234.31 37.6761 234.628 36.858L235.054 35.75L225.662 8.81818H233.298L238.719 28.0455H238.991L244.463 8.81818H252.151L241.974 37.8295C241.486 39.2386 240.821 40.4659 239.98 41.5114C239.151 42.5682 238.099 43.3807 236.827 43.9489C235.554 44.5284 234.02 44.8182 232.224 44.8182ZM8.05114 93H0.142046L12.1932 58.0909H21.7045L33.7386 93H25.8295L17.0852 66.0682H16.8125L8.05114 93ZM7.55682 79.2784H26.2386V85.0398H7.55682V79.2784ZM58.9787 74.2841L52.331 74.6932C52.2173 74.125 51.973 73.6136 51.598 73.1591C51.223 72.6932 50.7287 72.3239 50.1151 72.0511C49.5128 71.767 48.7912 71.625 47.9503 71.625C46.8253 71.625 45.8764 71.8636 45.1037 72.3409C44.331 72.8068 43.9446 73.4318 43.9446 74.2159C43.9446 74.8409 44.1946 75.3693 44.6946 75.8011C45.1946 76.233 46.0526 76.5795 47.2685 76.8409L52.0071 77.7955C54.5526 78.3182 56.4503 79.1591 57.7003 80.3182C58.9503 81.4773 59.5753 83 59.5753 84.8864C59.5753 86.6023 59.0696 88.108 58.0582 89.4034C57.0582 90.6989 55.6832 91.7102 53.9332 92.4375C52.1946 93.1534 50.1889 93.5114 47.9162 93.5114C44.4503 93.5114 41.6889 92.7898 39.6321 91.3466C37.5866 89.892 36.3878 87.9148 36.0355 85.4148L43.1776 85.0398C43.3935 86.0966 43.9162 86.9034 44.7457 87.4602C45.5753 88.0057 46.6378 88.2784 47.9332 88.2784C49.206 88.2784 50.2287 88.0341 51.0014 87.5455C51.7855 87.0455 52.1832 86.4034 52.1946 85.6193C52.1832 84.9602 51.9048 84.4205 51.3594 84C50.8139 83.5682 49.973 83.2386 48.8366 83.0114L44.3026 82.108C41.7457 81.5966 39.8423 80.7102 38.5923 79.4489C37.3537 78.1875 36.7344 76.5795 36.7344 74.625C36.7344 72.9432 37.1889 71.4943 38.098 70.2784C39.0185 69.0625 40.3082 68.125 41.9673 67.4659C43.6378 66.8068 45.5923 66.4773 47.831 66.4773C51.1378 66.4773 53.7401 67.1761 55.6378 68.5739C57.5469 69.9716 58.6605 71.875 58.9787 74.2841ZM70.7273 85.4659L70.7443 76.7557H71.8011L80.1875 66.8182H88.5227L77.2557 79.9773H75.5341L70.7273 85.4659ZM64.1477 93V58.0909H71.4091V93H64.1477ZM80.5114 93L72.8068 81.5966L77.6477 76.4659L89.017 93H80.5114ZM102.939 93.5114C100.246 93.5114 97.9276 92.9659 95.9844 91.875C94.0526 90.7727 92.5639 89.2159 91.5185 87.2045C90.473 85.1818 89.9503 82.7898 89.9503 80.0284C89.9503 77.3352 90.473 74.9716 91.5185 72.9375C92.5639 70.9034 94.0355 69.3182 95.9332 68.1818C97.8423 67.0455 100.081 66.4773 102.649 66.4773C104.376 66.4773 105.984 66.7557 107.473 67.3125C108.973 67.858 110.28 68.6818 111.393 69.7841C112.518 70.8864 113.393 72.2727 114.018 73.9432C114.643 75.6023 114.956 77.5455 114.956 79.7727V81.767H92.848V77.267H108.121C108.121 76.2216 107.893 75.2955 107.439 74.4886C106.984 73.6818 106.354 73.0511 105.547 72.5966C104.751 72.1307 103.825 71.8977 102.768 71.8977C101.666 71.8977 100.689 72.1534 99.8366 72.6648C98.9957 73.1648 98.3366 73.8409 97.8594 74.6932C97.3821 75.5341 97.1378 76.4716 97.1264 77.5057V81.7841C97.1264 83.0795 97.3651 84.1989 97.8423 85.142C98.331 86.0852 99.0185 86.8125 99.9048 87.3239C100.791 87.8352 101.842 88.0909 103.058 88.0909C103.865 88.0909 104.604 87.9773 105.274 87.75C105.945 87.5227 106.518 87.1818 106.996 86.7273C107.473 86.2727 107.837 85.7159 108.087 85.0568L114.803 85.5C114.462 87.1136 113.763 88.5227 112.706 89.7273C111.661 90.9205 110.308 91.8523 108.649 92.5227C107.001 93.1818 105.098 93.5114 102.939 93.5114ZM129.342 93.4261C127.354 93.4261 125.553 92.9148 123.939 91.892C122.337 90.858 121.064 89.3409 120.121 87.3409C119.189 85.3295 118.723 82.8636 118.723 79.9432C118.723 76.9432 119.206 74.4489 120.172 72.4602C121.138 70.4602 122.422 68.9659 124.024 67.9773C125.638 66.9773 127.405 66.4773 129.325 66.4773C130.791 66.4773 132.013 66.7273 132.99 67.2273C133.979 67.7159 134.774 68.3295 135.376 69.0682C135.99 69.7955 136.456 70.5114 136.774 71.2159H136.996V58.0909H144.24V93H137.081V88.8068H136.774C136.433 89.5341 135.95 90.2557 135.325 90.9716C134.712 91.6761 133.911 92.2614 132.922 92.7273C131.945 93.1932 130.751 93.4261 129.342 93.4261ZM131.643 87.6477C132.814 87.6477 133.803 87.3295 134.609 86.6932C135.428 86.0455 136.053 85.142 136.484 83.983C136.928 82.8239 137.149 81.4659 137.149 79.9091C137.149 78.3523 136.933 77 136.501 75.8523C136.07 74.7045 135.445 73.8182 134.626 73.1932C133.808 72.5682 132.814 72.2557 131.643 72.2557C130.45 72.2557 129.445 72.5795 128.626 73.2273C127.808 73.875 127.189 74.7727 126.768 75.9205C126.348 77.0682 126.138 78.3977 126.138 79.9091C126.138 81.4318 126.348 82.7784 126.768 83.9489C127.2 85.108 127.82 86.017 128.626 86.6761C129.445 87.3239 130.45 87.6477 131.643 87.6477ZM15.2102 137.864H21.483L24.6364 141.92L27.7386 145.534L33.5852 152.864H26.6989L22.6761 147.92L20.6136 144.989L15.2102 137.864ZM34.1136 132.545C34.1136 136.352 33.392 139.591 31.9489 142.261C30.517 144.932 28.5625 146.972 26.0852 148.381C23.6193 149.778 20.8466 150.477 17.767 150.477C14.6648 150.477 11.8807 149.773 9.41477 148.364C6.94886 146.955 5 144.915 3.56818 142.244C2.13636 139.574 1.42045 136.341 1.42045 132.545C1.42045 128.739 2.13636 125.5 3.56818 122.83C5 120.159 6.94886 118.125 9.41477 116.727C11.8807 115.318 14.6648 114.614 17.767 114.614C20.8466 114.614 23.6193 115.318 26.0852 116.727C28.5625 118.125 30.517 120.159 31.9489 122.83C33.392 125.5 34.1136 128.739 34.1136 132.545ZM26.6307 132.545C26.6307 130.08 26.2614 128 25.5227 126.307C24.7955 124.614 23.767 123.33 22.4375 122.455C21.108 121.58 19.5511 121.142 17.767 121.142C15.983 121.142 14.4261 121.58 13.0966 122.455C11.767 123.33 10.733 124.614 9.99432 126.307C9.26705 128 8.90341 130.08 8.90341 132.545C8.90341 135.011 9.26705 137.091 9.99432 138.784C10.733 140.477 11.767 141.761 13.0966 142.636C14.4261 143.511 15.983 143.949 17.767 143.949C19.5511 143.949 21.108 143.511 22.4375 142.636C23.767 141.761 24.7955 140.477 25.5227 138.784C26.2614 137.091 26.6307 135.011 26.6307 132.545ZM56.2344 138.852V123.818H63.4957V150H56.5241V145.244H56.2514C55.6605 146.778 54.6776 148.011 53.3026 148.943C51.9389 149.875 50.2741 150.341 48.3082 150.341C46.5582 150.341 45.0185 149.943 43.6889 149.148C42.3594 148.352 41.3196 147.222 40.5696 145.756C39.831 144.29 39.456 142.534 39.4446 140.489V123.818H46.706V139.193C46.7173 140.739 47.1321 141.96 47.9503 142.858C48.7685 143.756 49.8651 144.205 51.2401 144.205C52.1151 144.205 52.9332 144.006 53.6946 143.608C54.456 143.199 55.0696 142.597 55.5355 141.801C56.0128 141.006 56.2457 140.023 56.2344 138.852ZM81.2358 150.511C78.5426 150.511 76.2244 149.966 74.2812 148.875C72.3494 147.773 70.8608 146.216 69.8153 144.205C68.7699 142.182 68.2472 139.79 68.2472 137.028C68.2472 134.335 68.7699 131.972 69.8153 129.938C70.8608 127.903 72.3324 126.318 74.2301 125.182C76.1392 124.045 78.3778 123.477 80.946 123.477C82.6733 123.477 84.2813 123.756 85.7699 124.312C87.2699 124.858 88.5767 125.682 89.6903 126.784C90.8153 127.886 91.6903 129.273 92.3153 130.943C92.9403 132.602 93.2528 134.545 93.2528 136.773V138.767H71.1449V134.267H86.4176C86.4176 133.222 86.1903 132.295 85.7358 131.489C85.2813 130.682 84.6506 130.051 83.8438 129.597C83.0483 129.131 82.1222 128.898 81.0653 128.898C79.9631 128.898 78.9858 129.153 78.1335 129.665C77.2926 130.165 76.6335 130.841 76.1562 131.693C75.679 132.534 75.4347 133.472 75.4233 134.506V138.784C75.4233 140.08 75.6619 141.199 76.1392 142.142C76.6278 143.085 77.3153 143.812 78.2017 144.324C79.0881 144.835 80.1392 145.091 81.3551 145.091C82.1619 145.091 82.9006 144.977 83.571 144.75C84.2415 144.523 84.8153 144.182 85.2926 143.727C85.7699 143.273 86.1335 142.716 86.3835 142.057L93.0994 142.5C92.7585 144.114 92.0597 145.523 91.0028 146.727C89.9574 147.92 88.6051 148.852 86.946 149.523C85.2983 150.182 83.3949 150.511 81.2358 150.511ZM119.776 131.284L113.128 131.693C113.014 131.125 112.77 130.614 112.395 130.159C112.02 129.693 111.526 129.324 110.912 129.051C110.31 128.767 109.588 128.625 108.747 128.625C107.622 128.625 106.673 128.864 105.901 129.341C105.128 129.807 104.741 130.432 104.741 131.216C104.741 131.841 104.991 132.369 105.491 132.801C105.991 133.233 106.849 133.58 108.065 133.841L112.804 134.795C115.349 135.318 117.247 136.159 118.497 137.318C119.747 138.477 120.372 140 120.372 141.886C120.372 143.602 119.866 145.108 118.855 146.403C117.855 147.699 116.48 148.71 114.73 149.438C112.991 150.153 110.986 150.511 108.713 150.511C105.247 150.511 102.486 149.79 100.429 148.347C98.3835 146.892 97.1847 144.915 96.8324 142.415L103.974 142.04C104.19 143.097 104.713 143.903 105.543 144.46C106.372 145.006 107.435 145.278 108.73 145.278C110.003 145.278 111.026 145.034 111.798 144.545C112.582 144.045 112.98 143.403 112.991 142.619C112.98 141.96 112.702 141.42 112.156 141C111.611 140.568 110.77 140.239 109.634 140.011L105.099 139.108C102.543 138.597 100.639 137.71 99.3892 136.449C98.1506 135.187 97.5312 133.58 97.5312 131.625C97.5312 129.943 97.9858 128.494 98.8949 127.278C99.8153 126.062 101.105 125.125 102.764 124.466C104.435 123.807 106.389 123.477 108.628 123.477C111.935 123.477 114.537 124.176 116.435 125.574C118.344 126.972 119.457 128.875 119.776 131.284ZM138.871 123.818V129.273H123.104V123.818H138.871ZM126.683 117.545H133.945V141.955C133.945 142.625 134.047 143.148 134.251 143.523C134.456 143.886 134.74 144.142 135.104 144.29C135.479 144.437 135.911 144.511 136.399 144.511C136.74 144.511 137.081 144.483 137.422 144.426C137.763 144.358 138.024 144.307 138.206 144.273L139.348 149.676C138.984 149.79 138.473 149.92 137.814 150.068C137.155 150.227 136.354 150.324 135.411 150.358C133.661 150.426 132.126 150.193 130.808 149.659C129.501 149.125 128.484 148.295 127.757 147.17C127.03 146.045 126.672 144.625 126.683 142.909V117.545ZM143.601 150V123.818H150.862V150H143.601ZM147.249 120.443C146.169 120.443 145.243 120.085 144.47 119.369C143.709 118.642 143.328 117.773 143.328 116.761C143.328 115.761 143.709 114.903 144.47 114.188C145.243 113.46 146.169 113.097 147.249 113.097C148.328 113.097 149.249 113.46 150.01 114.188C150.783 114.903 151.169 115.761 151.169 116.761C151.169 117.773 150.783 118.642 150.01 119.369C149.249 120.085 148.328 120.443 147.249 120.443ZM168.509 150.511C165.861 150.511 163.571 149.949 161.639 148.824C159.719 147.687 158.236 146.108 157.19 144.085C156.145 142.051 155.622 139.693 155.622 137.011C155.622 134.307 156.145 131.943 157.19 129.92C158.236 127.886 159.719 126.307 161.639 125.182C163.571 124.045 165.861 123.477 168.509 123.477C171.156 123.477 173.44 124.045 175.361 125.182C177.293 126.307 178.781 127.886 179.827 129.92C180.872 131.943 181.395 134.307 181.395 137.011C181.395 139.693 180.872 142.051 179.827 144.085C178.781 146.108 177.293 147.687 175.361 148.824C173.44 149.949 171.156 150.511 168.509 150.511ZM168.543 144.886C169.747 144.886 170.753 144.545 171.56 143.864C172.366 143.17 172.974 142.227 173.384 141.034C173.804 139.841 174.014 138.483 174.014 136.96C174.014 135.438 173.804 134.08 173.384 132.886C172.974 131.693 172.366 130.75 171.56 130.057C170.753 129.364 169.747 129.017 168.543 129.017C167.327 129.017 166.304 129.364 165.474 130.057C164.656 130.75 164.037 131.693 163.616 132.886C163.207 134.08 163.003 135.438 163.003 136.96C163.003 138.483 163.207 139.841 163.616 141.034C164.037 142.227 164.656 143.17 165.474 143.864C166.304 144.545 167.327 144.886 168.543 144.886ZM193.378 134.864V150H186.116V123.818H193.037V128.438H193.344C193.923 126.915 194.895 125.71 196.259 124.824C197.622 123.926 199.276 123.477 201.219 123.477C203.037 123.477 204.622 123.875 205.974 124.67C207.327 125.466 208.378 126.602 209.128 128.08C209.878 129.545 210.253 131.295 210.253 133.33V150H202.991V134.625C203.003 133.023 202.594 131.773 201.764 130.875C200.935 129.966 199.793 129.511 198.338 129.511C197.361 129.511 196.497 129.722 195.747 130.142C195.009 130.562 194.429 131.176 194.009 131.983C193.599 132.778 193.389 133.739 193.378 134.864ZM237.76 131.284L231.112 131.693C230.999 131.125 230.754 130.614 230.379 130.159C230.004 129.693 229.51 129.324 228.896 129.051C228.294 128.767 227.572 128.625 226.732 128.625C225.607 128.625 224.658 128.864 223.885 129.341C223.112 129.807 222.726 130.432 222.726 131.216C222.726 131.841 222.976 132.369 223.476 132.801C223.976 133.233 224.834 133.58 226.05 133.841L230.788 134.795C233.334 135.318 235.232 136.159 236.482 137.318C237.732 138.477 238.357 140 238.357 141.886C238.357 143.602 237.851 145.108 236.839 146.403C235.839 147.699 234.464 148.71 232.714 149.438C230.976 150.153 228.97 150.511 226.697 150.511C223.232 150.511 220.47 149.79 218.413 148.347C216.368 146.892 215.169 144.915 214.817 142.415L221.959 142.04C222.175 143.097 222.697 143.903 223.527 144.46C224.357 145.006 225.419 145.278 226.714 145.278C227.987 145.278 229.01 145.034 229.783 144.545C230.567 144.045 230.964 143.403 230.976 142.619C230.964 141.96 230.686 141.42 230.141 141C229.595 140.568 228.754 140.239 227.618 140.011L223.084 139.108C220.527 138.597 218.624 137.71 217.374 136.449C216.135 135.187 215.516 133.58 215.516 131.625C215.516 129.943 215.97 128.494 216.879 127.278C217.8 126.062 219.089 125.125 220.749 124.466C222.419 123.807 224.374 123.477 226.612 123.477C229.919 123.477 232.521 124.176 234.419 125.574C236.328 126.972 237.442 128.875 237.76 131.284Z" fill="white"/>
<path d="M11.5391 205.625H14.1641L15.7188 207.641L16.8281 208.953L19.4922 212.375H16.6797L14.8672 210.078L14.0938 208.984L11.5391 205.625ZM19.875 203C19.875 204.724 19.5521 206.201 18.9062 207.43C18.2656 208.654 17.3906 209.591 16.2812 210.242C15.1771 210.893 13.9245 211.219 12.5234 211.219C11.1224 211.219 9.86719 210.893 8.75781 210.242C7.65365 209.586 6.77865 208.646 6.13281 207.422C5.49219 206.193 5.17188 204.719 5.17188 203C5.17188 201.276 5.49219 199.802 6.13281 198.578C6.77865 197.349 7.65365 196.409 8.75781 195.758C9.86719 195.107 11.1224 194.781 12.5234 194.781C13.9245 194.781 15.1771 195.107 16.2812 195.758C17.3906 196.409 18.2656 197.349 18.9062 198.578C19.5521 199.802 19.875 201.276 19.875 203ZM16.9609 203C16.9609 201.786 16.7708 200.763 16.3906 199.93C16.0156 199.091 15.4948 198.458 14.8281 198.031C14.1615 197.599 13.3932 197.383 12.5234 197.383C11.6536 197.383 10.8854 197.599 10.2188 198.031C9.55208 198.458 9.02865 199.091 8.64844 199.93C8.27344 200.763 8.08594 201.786 8.08594 203C8.08594 204.214 8.27344 205.24 8.64844 206.078C9.02865 206.911 9.55208 207.544 10.2188 207.977C10.8854 208.404 11.6536 208.617 12.5234 208.617C13.3932 208.617 14.1615 208.404 14.8281 207.977C15.4948 207.544 16.0156 206.911 16.3906 206.078C16.7708 205.24 16.9609 204.214 16.9609 203ZM30.1602 205.953V199H32.9883V211H30.2461V208.867H30.1211C29.8503 209.539 29.4049 210.089 28.7852 210.516C28.1706 210.943 27.4128 211.156 26.5117 211.156C25.7253 211.156 25.0299 210.982 24.4258 210.633C23.8268 210.279 23.3581 209.766 23.0195 209.094C22.681 208.417 22.5117 207.599 22.5117 206.641V199H25.3398V206.203C25.3398 206.964 25.5482 207.568 25.9648 208.016C26.3815 208.464 26.9284 208.687 27.6055 208.687C28.0221 208.687 28.4258 208.586 28.8164 208.383C29.207 208.18 29.5273 207.878 29.7773 207.477C30.0326 207.07 30.1602 206.562 30.1602 205.953ZM41.209 211.234C40.0059 211.234 38.9668 210.984 38.0918 210.484C37.222 209.979 36.5527 209.266 36.084 208.344C35.6152 207.417 35.3809 206.326 35.3809 205.07C35.3809 203.836 35.6152 202.753 36.084 201.82C36.5579 200.883 37.2194 200.154 38.0684 199.633C38.9173 199.107 39.9147 198.844 41.0605 198.844C41.8001 198.844 42.498 198.964 43.1543 199.203C43.8158 199.437 44.3991 199.802 44.9043 200.297C45.4147 200.792 45.8158 201.422 46.1074 202.187C46.3991 202.948 46.5449 203.854 46.5449 204.906V205.773H36.709V203.867H43.834C43.8288 203.326 43.7116 202.844 43.4824 202.422C43.2533 201.995 42.9329 201.659 42.5215 201.414C42.1152 201.169 41.6413 201.047 41.0996 201.047C40.5215 201.047 40.0137 201.187 39.5762 201.469C39.1387 201.745 38.7975 202.109 38.5527 202.562C38.3132 203.01 38.1908 203.503 38.1855 204.039V205.703C38.1855 206.401 38.3132 207 38.5684 207.5C38.8236 207.995 39.1803 208.375 39.6387 208.641C40.097 208.901 40.6335 209.031 41.248 209.031C41.6595 209.031 42.0319 208.974 42.3652 208.859C42.6986 208.74 42.9876 208.565 43.2324 208.336C43.4772 208.107 43.6621 207.823 43.7871 207.484L46.4277 207.781C46.2611 208.479 45.9434 209.089 45.4746 209.609C45.0111 210.125 44.4173 210.526 43.6934 210.812C42.9694 211.094 42.1413 211.234 41.209 211.234ZM58.4219 202.172L55.8438 202.453C55.7708 202.193 55.6432 201.948 55.4609 201.719C55.2839 201.49 55.0443 201.305 54.7422 201.164C54.4401 201.023 54.0703 200.953 53.6328 200.953C53.0443 200.953 52.5495 201.081 52.1484 201.336C51.7526 201.591 51.5573 201.922 51.5625 202.328C51.5573 202.677 51.6849 202.961 51.9453 203.18C52.2109 203.398 52.6484 203.578 53.2578 203.719L55.3047 204.156C56.4401 204.401 57.2839 204.789 57.8359 205.32C58.3932 205.852 58.6745 206.547 58.6797 207.406C58.6745 208.161 58.4531 208.828 58.0156 209.406C57.5833 209.979 56.9818 210.427 56.2109 210.75C55.4401 211.073 54.5547 211.234 53.5547 211.234C52.0859 211.234 50.9036 210.927 50.0078 210.312C49.112 209.693 48.5781 208.831 48.4063 207.727L51.1641 207.461C51.2891 208.003 51.5547 208.411 51.9609 208.687C52.3672 208.964 52.8958 209.102 53.5469 209.102C54.2188 209.102 54.7578 208.964 55.1641 208.687C55.5755 208.411 55.7813 208.07 55.7813 207.664C55.7813 207.32 55.6484 207.036 55.3828 206.812C55.1224 206.589 54.7161 206.417 54.1641 206.297L52.1172 205.867C50.9661 205.628 50.1146 205.224 49.5625 204.656C49.0104 204.083 48.737 203.359 48.7422 202.484C48.737 201.745 48.9375 201.104 49.3438 200.562C49.7552 200.016 50.3255 199.594 51.0547 199.297C51.7891 198.995 52.6354 198.844 53.5938 198.844C55 198.844 56.1068 199.143 56.9141 199.742C57.7266 200.341 58.2292 201.151 58.4219 202.172ZM67.0039 199V201.187H60.1055V199H67.0039ZM61.8086 196.125H64.6367V207.391C64.6367 207.771 64.694 208.063 64.8086 208.266C64.9284 208.464 65.0846 208.599 65.2773 208.672C65.4701 208.745 65.6836 208.781 65.918 208.781C66.0951 208.781 66.2565 208.768 66.4023 208.742C66.5534 208.716 66.668 208.693 66.7461 208.672L67.2227 210.883C67.0716 210.935 66.8555 210.992 66.5742 211.055C66.2982 211.117 65.9596 211.154 65.5586 211.164C64.8503 211.185 64.2122 211.078 63.6445 210.844C63.0768 210.604 62.6263 210.234 62.293 209.734C61.9648 209.234 61.8034 208.609 61.8086 207.859V196.125ZM69.3691 211V199H72.1973V211H69.3691ZM70.791 197.297C70.3431 197.297 69.9577 197.148 69.6348 196.852C69.3118 196.549 69.1504 196.187 69.1504 195.766C69.1504 195.339 69.3118 194.977 69.6348 194.68C69.9577 194.378 70.3431 194.227 70.791 194.227C71.2441 194.227 71.6296 194.378 71.9473 194.68C72.2702 194.977 72.4316 195.339 72.4316 195.766C72.4316 196.187 72.2702 196.549 71.9473 196.852C71.6296 197.148 71.2441 197.297 70.791 197.297ZM80.3398 211.234C79.168 211.234 78.1523 210.977 77.293 210.461C76.4336 209.945 75.7669 209.224 75.293 208.297C74.8242 207.37 74.5898 206.286 74.5898 205.047C74.5898 203.807 74.8242 202.721 75.293 201.789C75.7669 200.857 76.4336 200.133 77.293 199.617C78.1523 199.102 79.168 198.844 80.3398 198.844C81.5117 198.844 82.5273 199.102 83.3867 199.617C84.2461 200.133 84.9102 200.857 85.3789 201.789C85.8529 202.721 86.0898 203.807 86.0898 205.047C86.0898 206.286 85.8529 207.37 85.3789 208.297C84.9102 209.224 84.2461 209.945 83.3867 210.461C82.5273 210.977 81.5117 211.234 80.3398 211.234ZM80.3555 208.969C80.9909 208.969 81.5221 208.794 81.9492 208.445C82.3763 208.091 82.694 207.617 82.9023 207.023C83.1159 206.43 83.2227 205.768 83.2227 205.039C83.2227 204.305 83.1159 203.641 82.9023 203.047C82.694 202.448 82.3763 201.971 81.9492 201.617C81.5221 201.263 80.9909 201.086 80.3555 201.086C79.7044 201.086 79.1628 201.263 78.7305 201.617C78.3034 201.971 77.9831 202.448 77.7695 203.047C77.5612 203.641 77.457 204.305 77.457 205.039C77.457 205.768 77.5612 206.43 77.7695 207.023C77.9831 207.617 78.3034 208.091 78.7305 208.445C79.1628 208.794 79.7044 208.969 80.3555 208.969ZM91.3184 203.969V211H88.4902V199H91.1934V201.039H91.334C91.61 200.367 92.0501 199.833 92.6543 199.437C93.2637 199.042 94.0163 198.844 94.9121 198.844C95.7402 198.844 96.4616 199.021 97.0762 199.375C97.696 199.729 98.1751 200.242 98.5137 200.914C98.8574 201.586 99.0267 202.401 99.0215 203.359V211H96.1934V203.797C96.1934 202.995 95.985 202.367 95.5684 201.914C95.1569 201.461 94.5866 201.234 93.8574 201.234C93.3626 201.234 92.9225 201.344 92.5371 201.562C92.1569 201.776 91.8574 202.086 91.6387 202.492C91.4251 202.898 91.3184 203.391 91.3184 203.969ZM110.182 203.969V211H107.354V199H110.057V201.039H110.197C110.473 200.367 110.913 199.833 111.518 199.437C112.127 199.042 112.88 198.844 113.775 198.844C114.604 198.844 115.325 199.021 115.939 199.375C116.559 199.729 117.038 200.242 117.377 200.914C117.721 201.586 117.89 202.401 117.885 203.359V211H115.057V203.797C115.057 202.995 114.848 202.367 114.432 201.914C114.02 201.461 113.45 201.234 112.721 201.234C112.226 201.234 111.786 201.344 111.4 201.562C111.02 201.776 110.721 202.086 110.502 202.492C110.288 202.898 110.182 203.391 110.182 203.969ZM125.994 211.234C124.822 211.234 123.807 210.977 122.947 210.461C122.088 209.945 121.421 209.224 120.947 208.297C120.479 207.37 120.244 206.286 120.244 205.047C120.244 203.807 120.479 202.721 120.947 201.789C121.421 200.857 122.088 200.133 122.947 199.617C123.807 199.102 124.822 198.844 125.994 198.844C127.166 198.844 128.182 199.102 129.041 199.617C129.9 200.133 130.564 200.857 131.033 201.789C131.507 202.721 131.744 203.807 131.744 205.047C131.744 206.286 131.507 207.37 131.033 208.297C130.564 209.224 129.9 209.945 129.041 210.461C128.182 210.977 127.166 211.234 125.994 211.234ZM126.01 208.969C126.645 208.969 127.176 208.794 127.604 208.445C128.031 208.091 128.348 207.617 128.557 207.023C128.77 206.43 128.877 205.768 128.877 205.039C128.877 204.305 128.77 203.641 128.557 203.047C128.348 202.448 128.031 201.971 127.604 201.617C127.176 201.263 126.645 201.086 126.01 201.086C125.359 201.086 124.817 201.263 124.385 201.617C123.958 201.971 123.637 202.448 123.424 203.047C123.215 203.641 123.111 204.305 123.111 205.039C123.111 205.768 123.215 206.43 123.424 207.023C123.637 207.617 123.958 208.091 124.385 208.445C124.817 208.794 125.359 208.969 126.01 208.969ZM140.137 199V201.187H133.238V199H140.137ZM134.941 196.125H137.77V207.391C137.77 207.771 137.827 208.063 137.941 208.266C138.061 208.464 138.217 208.599 138.41 208.672C138.603 208.745 138.816 208.781 139.051 208.781C139.228 208.781 139.389 208.768 139.535 208.742C139.686 208.716 139.801 208.693 139.879 208.672L140.355 210.883C140.204 210.935 139.988 210.992 139.707 211.055C139.431 211.117 139.092 211.154 138.691 211.164C137.983 211.185 137.345 211.078 136.777 210.844C136.21 210.604 135.759 210.234 135.426 209.734C135.098 209.234 134.936 208.609 134.941 207.859V196.125ZM151.412 211.242C150.652 211.242 149.967 211.107 149.357 210.836C148.753 210.56 148.274 210.154 147.92 209.617C147.571 209.081 147.396 208.419 147.396 207.633C147.396 206.956 147.521 206.396 147.771 205.953C148.021 205.51 148.363 205.156 148.795 204.891C149.227 204.625 149.714 204.424 150.256 204.289C150.803 204.148 151.368 204.047 151.951 203.984C152.654 203.911 153.225 203.846 153.662 203.789C154.1 203.727 154.417 203.633 154.615 203.508C154.818 203.378 154.92 203.177 154.92 202.906V202.859C154.92 202.271 154.745 201.815 154.396 201.492C154.048 201.169 153.545 201.008 152.889 201.008C152.196 201.008 151.646 201.159 151.24 201.461C150.839 201.763 150.568 202.12 150.428 202.531L147.787 202.156C147.995 201.427 148.339 200.818 148.818 200.328C149.298 199.833 149.883 199.464 150.576 199.219C151.269 198.969 152.035 198.844 152.873 198.844C153.451 198.844 154.027 198.911 154.6 199.047C155.173 199.182 155.696 199.406 156.17 199.719C156.644 200.026 157.024 200.445 157.311 200.977C157.602 201.508 157.748 202.172 157.748 202.969V211H155.029V209.352H154.936C154.764 209.685 154.521 209.997 154.209 210.289C153.902 210.576 153.514 210.807 153.045 210.984C152.581 211.156 152.037 211.242 151.412 211.242ZM152.146 209.164C152.714 209.164 153.206 209.052 153.623 208.828C154.04 208.599 154.36 208.297 154.584 207.922C154.813 207.547 154.928 207.138 154.928 206.695V205.281C154.839 205.354 154.688 205.422 154.475 205.484C154.266 205.547 154.032 205.602 153.771 205.648C153.511 205.695 153.253 205.737 152.998 205.773C152.743 205.81 152.521 205.841 152.334 205.867C151.912 205.924 151.535 206.018 151.201 206.148C150.868 206.279 150.605 206.461 150.412 206.695C150.219 206.924 150.123 207.221 150.123 207.586C150.123 208.107 150.313 208.5 150.693 208.766C151.074 209.031 151.558 209.164 152.146 209.164ZM163.42 203.969V211H160.592V199H163.295V201.039H163.436C163.712 200.367 164.152 199.833 164.756 199.437C165.365 199.042 166.118 198.844 167.014 198.844C167.842 198.844 168.563 199.021 169.178 199.375C169.798 199.729 170.277 200.242 170.615 200.914C170.959 201.586 171.128 202.401 171.123 203.359V211H168.295V203.797C168.295 202.995 168.087 202.367 167.67 201.914C167.258 201.461 166.688 201.234 165.959 201.234C165.464 201.234 165.024 201.344 164.639 201.562C164.258 201.776 163.959 202.086 163.74 202.492C163.527 202.898 163.42 203.391 163.42 203.969ZM183.482 202.172L180.904 202.453C180.831 202.193 180.704 201.948 180.521 201.719C180.344 201.49 180.105 201.305 179.803 201.164C179.501 201.023 179.131 200.953 178.693 200.953C178.105 200.953 177.61 201.081 177.209 201.336C176.813 201.591 176.618 201.922 176.623 202.328C176.618 202.677 176.745 202.961 177.006 203.18C177.271 203.398 177.709 203.578 178.318 203.719L180.365 204.156C181.501 204.401 182.344 204.789 182.896 205.32C183.454 205.852 183.735 206.547 183.74 207.406C183.735 208.161 183.514 208.828 183.076 209.406C182.644 209.979 182.042 210.427 181.271 210.75C180.501 211.073 179.615 211.234 178.615 211.234C177.146 211.234 175.964 210.927 175.068 210.312C174.173 209.693 173.639 208.831 173.467 207.727L176.225 207.461C176.35 208.003 176.615 208.411 177.021 208.687C177.428 208.964 177.956 209.102 178.607 209.102C179.279 209.102 179.818 208.964 180.225 208.687C180.636 208.411 180.842 208.07 180.842 207.664C180.842 207.32 180.709 207.036 180.443 206.812C180.183 206.589 179.777 206.417 179.225 206.297L177.178 205.867C176.027 205.628 175.175 205.224 174.623 204.656C174.071 204.083 173.798 203.359 173.803 202.484C173.798 201.745 173.998 201.104 174.404 200.562C174.816 200.016 175.386 199.594 176.115 199.297C176.85 198.995 177.696 198.844 178.654 198.844C180.061 198.844 181.167 199.143 181.975 199.742C182.787 200.341 183.29 201.151 183.482 202.172ZM188.549 211L185.158 199H188.041L190.15 207.437H190.26L192.416 199H195.268L197.424 207.391H197.541L199.619 199H202.51L199.111 211H196.166L193.916 202.891H193.752L191.502 211H188.549ZM209.453 211.234C208.25 211.234 207.211 210.984 206.336 210.484C205.466 209.979 204.797 209.266 204.328 208.344C203.859 207.417 203.625 206.326 203.625 205.07C203.625 203.836 203.859 202.753 204.328 201.82C204.802 200.883 205.464 200.154 206.313 199.633C207.161 199.107 208.159 198.844 209.305 198.844C210.044 198.844 210.742 198.964 211.398 199.203C212.06 199.437 212.643 199.802 213.148 200.297C213.659 200.792 214.06 201.422 214.352 202.187C214.643 202.948 214.789 203.854 214.789 204.906V205.773H204.953V203.867H212.078C212.073 203.326 211.956 202.844 211.727 202.422C211.497 201.995 211.177 201.659 210.766 201.414C210.359 201.169 209.885 201.047 209.344 201.047C208.766 201.047 208.258 201.187 207.82 201.469C207.383 201.745 207.042 202.109 206.797 202.562C206.557 203.01 206.435 203.503 206.43 204.039V205.703C206.43 206.401 206.557 207 206.812 207.5C207.068 207.995 207.424 208.375 207.883 208.641C208.341 208.901 208.878 209.031 209.492 209.031C209.904 209.031 210.276 208.974 210.609 208.859C210.943 208.74 211.232 208.565 211.477 208.336C211.721 208.107 211.906 207.823 212.031 207.484L214.672 207.781C214.505 208.479 214.188 209.089 213.719 209.609C213.255 210.125 212.661 210.526 211.938 210.812C211.214 211.094 210.385 211.234 209.453 211.234ZM217.182 211V199H219.924V201H220.049C220.268 200.307 220.643 199.773 221.174 199.398C221.71 199.018 222.322 198.828 223.01 198.828C223.166 198.828 223.34 198.836 223.533 198.852C223.731 198.862 223.895 198.88 224.025 198.906V201.508C223.906 201.466 223.715 201.43 223.455 201.398C223.2 201.362 222.952 201.344 222.713 201.344C222.197 201.344 221.734 201.456 221.322 201.68C220.916 201.898 220.596 202.203 220.361 202.594C220.127 202.984 220.01 203.435 220.01 203.945V211H217.182ZM230.723 211.234C229.52 211.234 228.48 210.984 227.605 210.484C226.736 209.979 226.066 209.266 225.598 208.344C225.129 207.417 224.895 206.326 224.895 205.07C224.895 203.836 225.129 202.753 225.598 201.82C226.072 200.883 226.733 200.154 227.582 199.633C228.431 199.107 229.428 198.844 230.574 198.844C231.314 198.844 232.012 198.964 232.668 199.203C233.329 199.437 233.913 199.802 234.418 200.297C234.928 200.792 235.329 201.422 235.621 202.187C235.913 202.948 236.059 203.854 236.059 204.906V205.773H226.223V203.867H233.348C233.342 203.326 233.225 202.844 232.996 202.422C232.767 201.995 232.447 201.659 232.035 201.414C231.629 201.169 231.155 201.047 230.613 201.047C230.035 201.047 229.527 201.187 229.09 201.469C228.652 201.745 228.311 202.109 228.066 202.562C227.827 203.01 227.704 203.503 227.699 204.039V205.703C227.699 206.401 227.827 207 228.082 207.5C228.337 207.995 228.694 208.375 229.152 208.641C229.611 208.901 230.147 209.031 230.762 209.031C231.173 209.031 231.546 208.974 231.879 208.859C232.212 208.74 232.501 208.565 232.746 208.336C232.991 208.107 233.176 207.823 233.301 207.484L235.941 207.781C235.775 208.479 235.457 209.089 234.988 209.609C234.525 210.125 233.931 210.526 233.207 210.812C232.483 211.094 231.655 211.234 230.723 211.234ZM242.904 211.211C241.962 211.211 241.118 210.969 240.373 210.484C239.628 210 239.04 209.297 238.607 208.375C238.175 207.453 237.959 206.333 237.959 205.016C237.959 203.682 238.178 202.557 238.615 201.641C239.058 200.719 239.654 200.023 240.404 199.555C241.154 199.081 241.99 198.844 242.912 198.844C243.615 198.844 244.193 198.964 244.646 199.203C245.1 199.437 245.459 199.721 245.725 200.055C245.99 200.383 246.196 200.693 246.342 200.984H246.459V195H249.295V211H246.514V209.109H246.342C246.196 209.401 245.985 209.711 245.709 210.039C245.433 210.362 245.068 210.638 244.615 210.867C244.162 211.096 243.592 211.211 242.904 211.211ZM243.693 208.891C244.292 208.891 244.803 208.729 245.225 208.406C245.646 208.078 245.967 207.622 246.186 207.039C246.404 206.456 246.514 205.776 246.514 205C246.514 204.224 246.404 203.549 246.186 202.977C245.972 202.404 245.654 201.958 245.232 201.641C244.816 201.323 244.303 201.164 243.693 201.164C243.063 201.164 242.537 201.328 242.115 201.656C241.693 201.984 241.376 202.437 241.162 203.016C240.949 203.594 240.842 204.255 240.842 205C240.842 205.75 240.949 206.419 241.162 207.008C241.381 207.591 241.701 208.052 242.123 208.391C242.55 208.724 243.074 208.891 243.693 208.891ZM255.012 206.297V206.094C255.017 205.151 255.105 204.401 255.277 203.844C255.454 203.286 255.704 202.839 256.027 202.5C256.35 202.156 256.743 201.841 257.207 201.555C257.525 201.357 257.809 201.141 258.059 200.906C258.314 200.667 258.514 200.401 258.66 200.109C258.806 199.812 258.879 199.482 258.879 199.117C258.879 198.706 258.783 198.349 258.59 198.047C258.397 197.745 258.137 197.51 257.809 197.344C257.486 197.177 257.124 197.094 256.723 197.094C256.353 197.094 256.001 197.174 255.668 197.336C255.34 197.492 255.066 197.732 254.848 198.055C254.634 198.372 254.514 198.776 254.488 199.266H251.707C251.733 198.276 251.973 197.448 252.426 196.781C252.884 196.115 253.488 195.615 254.238 195.281C254.993 194.948 255.827 194.781 256.738 194.781C257.733 194.781 258.608 194.956 259.363 195.305C260.124 195.654 260.715 196.151 261.137 196.797C261.564 197.437 261.777 198.198 261.777 199.078C261.777 199.672 261.681 200.203 261.488 200.672C261.301 201.141 261.033 201.557 260.684 201.922C260.335 202.286 259.921 202.612 259.441 202.898C259.02 203.159 258.673 203.43 258.402 203.711C258.137 203.992 257.939 204.323 257.809 204.703C257.684 205.078 257.618 205.542 257.613 206.094V206.297H255.012ZM256.371 211.172C255.902 211.172 255.499 211.005 255.16 210.672C254.822 210.339 254.652 209.932 254.652 209.453C254.652 208.984 254.822 208.583 255.16 208.25C255.499 207.917 255.902 207.75 256.371 207.75C256.835 207.75 257.236 207.917 257.574 208.25C257.918 208.583 258.09 208.984 258.09 209.453C258.09 209.771 258.009 210.06 257.848 210.32C257.691 210.581 257.483 210.789 257.223 210.945C256.967 211.096 256.684 211.172 256.371 211.172ZM5.57812 239V223H15.8281V225.43H8.47656V229.773H15.125V232.203H8.47656V239H5.57812ZM22.7754 239.234C21.5723 239.234 20.5332 238.984 19.6582 238.484C18.7884 237.979 18.1191 237.266 17.6504 236.344C17.1816 235.417 16.9473 234.326 16.9473 233.07C16.9473 231.836 17.1816 230.753 17.6504 229.82C18.1243 228.883 18.7858 228.154 19.6348 227.633C20.4837 227.107 21.4811 226.844 22.627 226.844C23.3665 226.844 24.0645 226.964 24.7207 227.203C25.3822 227.437 25.9655 227.802 26.4707 228.297C26.9811 228.792 27.3822 229.422 27.6738 230.187C27.9655 230.948 28.1113 231.854 28.1113 232.906V233.773H18.2754V231.867H25.4004C25.3952 231.326 25.278 230.844 25.0488 230.422C24.8197 229.995 24.4993 229.659 24.0879 229.414C23.6816 229.169 23.2077 229.047 22.666 229.047C22.0879 229.047 21.5801 229.187 21.1426 229.469C20.7051 229.745 20.3639 230.109 20.1191 230.562C19.8796 231.01 19.7572 231.503 19.752 232.039V233.703C19.752 234.401 19.8796 235 20.1348 235.5C20.39 235.995 20.7467 236.375 21.2051 236.641C21.6634 236.901 22.1999 237.031 22.8145 237.031C23.2259 237.031 23.5983 236.974 23.9316 236.859C24.265 236.74 24.554 236.565 24.7988 236.336C25.0436 236.107 25.2285 235.823 25.3535 235.484L27.9941 235.781C27.8275 236.479 27.5098 237.089 27.041 237.609C26.5775 238.125 25.9837 238.526 25.2598 238.812C24.5358 239.094 23.7077 239.234 22.7754 239.234ZM35.8164 239.234C34.6133 239.234 33.5742 238.984 32.6992 238.484C31.8294 237.979 31.1602 237.266 30.6914 236.344C30.2227 235.417 29.9883 234.326 29.9883 233.07C29.9883 231.836 30.2227 230.753 30.6914 229.82C31.1654 228.883 31.8268 228.154 32.6758 227.633C33.5247 227.107 34.5221 226.844 35.668 226.844C36.4076 226.844 37.1055 226.964 37.7617 227.203C38.4232 227.437 39.0065 227.802 39.5117 228.297C40.0221 228.792 40.4232 229.422 40.7148 230.187C41.0065 230.948 41.1523 231.854 41.1523 232.906V233.773H31.3164V231.867H38.4414C38.4362 231.326 38.319 230.844 38.0898 230.422C37.8607 229.995 37.5404 229.659 37.1289 229.414C36.7227 229.169 36.2487 229.047 35.707 229.047C35.1289 229.047 34.6211 229.187 34.1836 229.469C33.7461 229.745 33.4049 230.109 33.1602 230.562C32.9206 231.01 32.7982 231.503 32.793 232.039V233.703C32.793 234.401 32.9206 235 33.1758 235.5C33.431 235.995 33.7878 236.375 34.2461 236.641C34.7044 236.901 35.2409 237.031 35.8555 237.031C36.2669 237.031 36.6393 236.974 36.9727 236.859C37.306 236.74 37.5951 236.565 37.8398 236.336C38.0846 236.107 38.2695 235.823 38.3945 235.484L41.0352 235.781C40.8685 236.479 40.5508 237.089 40.082 237.609C39.6185 238.125 39.0247 238.526 38.3008 238.812C37.5768 239.094 36.7487 239.234 35.8164 239.234ZM46.373 223V239H43.5449V223H46.373ZM60.8164 227V229.187H53.7227V227H60.8164ZM55.4961 239V225.867C55.4961 225.06 55.6628 224.388 55.9961 223.852C56.3346 223.315 56.7878 222.914 57.3555 222.648C57.9232 222.383 58.5534 222.25 59.2461 222.25C59.7357 222.25 60.1706 222.289 60.5508 222.367C60.931 222.445 61.2122 222.516 61.3945 222.578L60.832 224.766C60.7122 224.729 60.5612 224.693 60.3789 224.656C60.1966 224.615 59.9935 224.594 59.7695 224.594C59.2435 224.594 58.8711 224.721 58.6523 224.977C58.4388 225.227 58.332 225.586 58.332 226.055V239H55.4961ZM63.0313 239V227H65.7734V229H65.8984C66.1172 228.307 66.4922 227.773 67.0234 227.398C67.5599 227.018 68.1719 226.828 68.8594 226.828C69.0156 226.828 69.1901 226.836 69.3828 226.852C69.5807 226.862 69.7448 226.88 69.875 226.906V229.508C69.7552 229.466 69.5651 229.43 69.3047 229.398C69.0495 229.362 68.8021 229.344 68.5625 229.344C68.0469 229.344 67.5833 229.456 67.1719 229.68C66.7656 229.898 66.4453 230.203 66.2109 230.594C65.9766 230.984 65.8594 231.435 65.8594 231.945V239H63.0313ZM76.5723 239.234C75.3691 239.234 74.3301 238.984 73.4551 238.484C72.5853 237.979 71.916 237.266 71.4473 236.344C70.9785 235.417 70.7441 234.326 70.7441 233.07C70.7441 231.836 70.9785 230.753 71.4473 229.82C71.9212 228.883 72.5827 228.154 73.4316 227.633C74.2806 227.107 75.278 226.844 76.4238 226.844C77.1634 226.844 77.8613 226.964 78.5176 227.203C79.179 227.437 79.7624 227.802 80.2676 228.297C80.778 228.792 81.179 229.422 81.4707 230.187C81.7624 230.948 81.9082 231.854 81.9082 232.906V233.773H72.0723V231.867H79.1973C79.1921 231.326 79.0749 230.844 78.8457 230.422C78.6165 229.995 78.2962 229.659 77.8848 229.414C77.4785 229.169 77.0046 229.047 76.4629 229.047C75.8848 229.047 75.377 229.187 74.9395 229.469C74.502 229.745 74.1608 230.109 73.916 230.562C73.6764 231.01 73.554 231.503 73.5488 232.039V233.703C73.5488 234.401 73.6764 235 73.9316 235.5C74.1868 235.995 74.5436 236.375 75.002 236.641C75.4603 236.901 75.9967 237.031 76.6113 237.031C77.0228 237.031 77.3952 236.974 77.7285 236.859C78.0618 236.74 78.3509 236.565 78.5957 236.336C78.8405 236.107 79.0254 235.823 79.1504 235.484L81.791 235.781C81.6243 236.479 81.3066 237.089 80.8379 237.609C80.3743 238.125 79.7806 238.526 79.0566 238.812C78.3327 239.094 77.5046 239.234 76.5723 239.234ZM89.6133 239.234C88.4102 239.234 87.3711 238.984 86.4961 238.484C85.6263 237.979 84.957 237.266 84.4883 236.344C84.0195 235.417 83.7852 234.326 83.7852 233.07C83.7852 231.836 84.0195 230.753 84.4883 229.82C84.9622 228.883 85.6237 228.154 86.4727 227.633C87.3216 227.107 88.319 226.844 89.4648 226.844C90.2044 226.844 90.9023 226.964 91.5586 227.203C92.2201 227.437 92.8034 227.802 93.3086 228.297C93.819 228.792 94.2201 229.422 94.5117 230.187C94.8034 230.948 94.9492 231.854 94.9492 232.906V233.773H85.1133V231.867H92.2383C92.2331 231.326 92.1159 230.844 91.8867 230.422C91.6576 229.995 91.3372 229.659 90.9258 229.414C90.5195 229.169 90.0456 229.047 89.5039 229.047C88.9258 229.047 88.418 229.187 87.9805 229.469C87.543 229.745 87.2018 230.109 86.957 230.562C86.7174 231.01 86.5951 231.503 86.5898 232.039V233.703C86.5898 234.401 86.7174 235 86.9727 235.5C87.2279 235.995 87.5846 236.375 88.043 236.641C88.5013 236.901 89.0378 237.031 89.6523 237.031C90.0638 237.031 90.4362 236.974 90.7695 236.859C91.1029 236.74 91.3919 236.565 91.6367 236.336C91.8815 236.107 92.0664 235.823 92.1914 235.484L94.832 235.781C94.6654 236.479 94.3477 237.089 93.8789 237.609C93.4154 238.125 92.8216 238.526 92.0977 238.812C91.3737 239.094 90.5456 239.234 89.6133 239.234ZM108.791 227V229.187H101.893V227H108.791ZM103.596 224.125H106.424V235.391C106.424 235.771 106.481 236.063 106.596 236.266C106.715 236.464 106.872 236.599 107.064 236.672C107.257 236.745 107.471 236.781 107.705 236.781C107.882 236.781 108.044 236.768 108.189 236.742C108.34 236.716 108.455 236.693 108.533 236.672L109.01 238.883C108.859 238.935 108.643 238.992 108.361 239.055C108.085 239.117 107.747 239.154 107.346 239.164C106.637 239.185 105.999 239.078 105.432 238.844C104.864 238.604 104.413 238.234 104.08 237.734C103.752 237.234 103.59 236.609 103.596 235.859V224.125ZM116.262 239.234C115.09 239.234 114.074 238.977 113.215 238.461C112.355 237.945 111.689 237.224 111.215 236.297C110.746 235.37 110.512 234.286 110.512 233.047C110.512 231.807 110.746 230.721 111.215 229.789C111.689 228.857 112.355 228.133 113.215 227.617C114.074 227.102 115.09 226.844 116.262 226.844C117.434 226.844 118.449 227.102 119.309 227.617C120.168 228.133 120.832 228.857 121.301 229.789C121.775 230.721 122.012 231.807 122.012 233.047C122.012 234.286 121.775 235.37 121.301 236.297C120.832 237.224 120.168 237.945 119.309 238.461C118.449 238.977 117.434 239.234 116.262 239.234ZM116.277 236.969C116.913 236.969 117.444 236.794 117.871 236.445C118.298 236.091 118.616 235.617 118.824 235.023C119.038 234.43 119.145 233.768 119.145 233.039C119.145 232.305 119.038 231.641 118.824 231.047C118.616 230.448 118.298 229.971 117.871 229.617C117.444 229.263 116.913 229.086 116.277 229.086C115.626 229.086 115.085 229.263 114.652 229.617C114.225 229.971 113.905 230.448 113.691 231.047C113.483 231.641 113.379 232.305 113.379 233.039C113.379 233.768 113.483 234.43 113.691 235.023C113.905 235.617 114.225 236.091 114.652 236.445C115.085 236.794 115.626 236.969 116.277 236.969ZM129.869 239V227H132.611V229H132.736C132.955 228.307 133.33 227.773 133.861 227.398C134.398 227.018 135.01 226.828 135.697 226.828C135.854 226.828 136.028 226.836 136.221 226.852C136.419 226.862 136.583 226.88 136.713 226.906V229.508C136.593 229.466 136.403 229.43 136.143 229.398C135.887 229.362 135.64 229.344 135.4 229.344C134.885 229.344 134.421 229.456 134.01 229.68C133.604 229.898 133.283 230.203 133.049 230.594C132.814 230.984 132.697 231.435 132.697 231.945V239H129.869ZM143.41 239.234C142.207 239.234 141.168 238.984 140.293 238.484C139.423 237.979 138.754 237.266 138.285 236.344C137.816 235.417 137.582 234.326 137.582 233.07C137.582 231.836 137.816 230.753 138.285 229.82C138.759 228.883 139.421 228.154 140.27 227.633C141.118 227.107 142.116 226.844 143.262 226.844C144.001 226.844 144.699 226.964 145.355 227.203C146.017 227.437 146.6 227.802 147.105 228.297C147.616 228.792 148.017 229.422 148.309 230.187C148.6 230.948 148.746 231.854 148.746 232.906V233.773H138.91V231.867H146.035C146.03 231.326 145.913 230.844 145.684 230.422C145.454 229.995 145.134 229.659 144.723 229.414C144.316 229.169 143.842 229.047 143.301 229.047C142.723 229.047 142.215 229.187 141.777 229.469C141.34 229.745 140.999 230.109 140.754 230.562C140.514 231.01 140.392 231.503 140.387 232.039V233.703C140.387 234.401 140.514 235 140.77 235.5C141.025 235.995 141.382 236.375 141.84 236.641C142.298 236.901 142.835 237.031 143.449 237.031C143.861 237.031 144.233 236.974 144.566 236.859C144.9 236.74 145.189 236.565 145.434 236.336C145.678 236.107 145.863 235.823 145.988 235.484L148.629 235.781C148.462 236.479 148.145 237.089 147.676 237.609C147.212 238.125 146.618 238.526 145.895 238.812C145.171 239.094 144.342 239.234 143.41 239.234ZM154.592 239.242C153.831 239.242 153.146 239.107 152.537 238.836C151.933 238.56 151.454 238.154 151.1 237.617C150.751 237.081 150.576 236.419 150.576 235.633C150.576 234.956 150.701 234.396 150.951 233.953C151.201 233.51 151.542 233.156 151.975 232.891C152.407 232.625 152.894 232.424 153.436 232.289C153.982 232.148 154.548 232.047 155.131 231.984C155.834 231.911 156.404 231.846 156.842 231.789C157.279 231.727 157.597 231.633 157.795 231.508C157.998 231.378 158.1 231.177 158.1 230.906V230.859C158.1 230.271 157.925 229.815 157.576 229.492C157.227 229.169 156.725 229.008 156.068 229.008C155.376 229.008 154.826 229.159 154.42 229.461C154.019 229.763 153.748 230.12 153.607 230.531L150.967 230.156C151.175 229.427 151.519 228.818 151.998 228.328C152.477 227.833 153.063 227.464 153.756 227.219C154.449 226.969 155.214 226.844 156.053 226.844C156.631 226.844 157.206 226.911 157.779 227.047C158.352 227.182 158.876 227.406 159.35 227.719C159.824 228.026 160.204 228.445 160.49 228.977C160.782 229.508 160.928 230.172 160.928 230.969V239H158.209V237.352H158.115C157.943 237.685 157.701 237.997 157.389 238.289C157.081 238.576 156.693 238.807 156.225 238.984C155.761 239.156 155.217 239.242 154.592 239.242ZM155.326 237.164C155.894 237.164 156.386 237.052 156.803 236.828C157.219 236.599 157.54 236.297 157.764 235.922C157.993 235.547 158.107 235.138 158.107 234.695V233.281C158.019 233.354 157.868 233.422 157.654 233.484C157.446 233.547 157.212 233.602 156.951 233.648C156.691 233.695 156.433 233.737 156.178 233.773C155.923 233.81 155.701 233.841 155.514 233.867C155.092 233.924 154.714 234.018 154.381 234.148C154.048 234.279 153.785 234.461 153.592 234.695C153.399 234.924 153.303 235.221 153.303 235.586C153.303 236.107 153.493 236.5 153.873 236.766C154.253 237.031 154.738 237.164 155.326 237.164ZM169.006 239.234C167.808 239.234 166.779 238.971 165.92 238.445C165.066 237.919 164.407 237.193 163.943 236.266C163.485 235.333 163.256 234.26 163.256 233.047C163.256 231.828 163.49 230.753 163.959 229.82C164.428 228.883 165.089 228.154 165.943 227.633C166.803 227.107 167.818 226.844 168.99 226.844C169.964 226.844 170.826 227.023 171.576 227.383C172.331 227.737 172.933 228.24 173.381 228.891C173.829 229.536 174.084 230.292 174.146 231.156H171.443C171.334 230.578 171.074 230.096 170.662 229.711C170.256 229.32 169.712 229.125 169.029 229.125C168.451 229.125 167.943 229.281 167.506 229.594C167.068 229.901 166.727 230.344 166.482 230.922C166.243 231.5 166.123 232.193 166.123 233C166.123 233.818 166.243 234.521 166.482 235.109C166.722 235.693 167.058 236.143 167.49 236.461C167.928 236.773 168.441 236.93 169.029 236.93C169.446 236.93 169.818 236.852 170.146 236.695C170.48 236.534 170.758 236.302 170.982 236C171.206 235.698 171.36 235.331 171.443 234.898H174.146C174.079 235.747 173.829 236.5 173.396 237.156C172.964 237.807 172.376 238.318 171.631 238.687C170.886 239.052 170.011 239.234 169.006 239.234ZM179.297 231.969V239H176.469V223H179.234V229.039H179.375C179.656 228.362 180.091 227.828 180.68 227.437C181.273 227.042 182.029 226.844 182.945 226.844C183.779 226.844 184.505 227.018 185.125 227.367C185.745 227.716 186.224 228.227 186.563 228.898C186.906 229.57 187.078 230.391 187.078 231.359V239H184.25V231.797C184.25 230.99 184.042 230.362 183.625 229.914C183.214 229.461 182.635 229.234 181.891 229.234C181.391 229.234 180.943 229.344 180.547 229.562C180.156 229.776 179.849 230.086 179.625 230.492C179.406 230.898 179.297 231.391 179.297 231.969ZM200.652 239.234C199.48 239.234 198.465 238.977 197.605 238.461C196.746 237.945 196.079 237.224 195.605 236.297C195.137 235.37 194.902 234.286 194.902 233.047C194.902 231.807 195.137 230.721 195.605 229.789C196.079 228.857 196.746 228.133 197.605 227.617C198.465 227.102 199.48 226.844 200.652 226.844C201.824 226.844 202.84 227.102 203.699 227.617C204.559 228.133 205.223 228.857 205.691 229.789C206.165 230.721 206.402 231.807 206.402 233.047C206.402 234.286 206.165 235.37 205.691 236.297C205.223 237.224 204.559 237.945 203.699 238.461C202.84 238.977 201.824 239.234 200.652 239.234ZM200.668 236.969C201.303 236.969 201.835 236.794 202.262 236.445C202.689 236.091 203.007 235.617 203.215 235.023C203.428 234.43 203.535 233.768 203.535 233.039C203.535 232.305 203.428 231.641 203.215 231.047C203.007 230.448 202.689 229.971 202.262 229.617C201.835 229.263 201.303 229.086 200.668 229.086C200.017 229.086 199.475 229.263 199.043 229.617C198.616 229.971 198.296 230.448 198.082 231.047C197.874 231.641 197.77 232.305 197.77 233.039C197.77 233.768 197.874 234.43 198.082 235.023C198.296 235.617 198.616 236.091 199.043 236.445C199.475 236.794 200.017 236.969 200.668 236.969ZM216.451 233.953V227H219.279V239H216.537V236.867H216.412C216.141 237.539 215.696 238.089 215.076 238.516C214.462 238.943 213.704 239.156 212.803 239.156C212.016 239.156 211.321 238.982 210.717 238.633C210.118 238.279 209.649 237.766 209.311 237.094C208.972 236.417 208.803 235.599 208.803 234.641V227H211.631V234.203C211.631 234.964 211.839 235.568 212.256 236.016C212.673 236.464 213.219 236.687 213.896 236.687C214.313 236.687 214.717 236.586 215.107 236.383C215.498 236.18 215.818 235.878 216.068 235.477C216.324 235.07 216.451 234.562 216.451 233.953ZM228.18 227V229.187H221.281V227H228.18ZM222.984 224.125H225.813V235.391C225.813 235.771 225.87 236.063 225.984 236.266C226.104 236.464 226.26 236.599 226.453 236.672C226.646 236.745 226.859 236.781 227.094 236.781C227.271 236.781 227.432 236.768 227.578 236.742C227.729 236.716 227.844 236.693 227.922 236.672L228.398 238.883C228.247 238.935 228.031 238.992 227.75 239.055C227.474 239.117 227.135 239.154 226.734 239.164C226.026 239.185 225.388 239.078 224.82 238.844C224.253 238.604 223.802 238.234 223.469 237.734C223.141 237.234 222.979 236.609 222.984 235.859V224.125ZM241.994 227V229.187H235.096V227H241.994ZM236.799 224.125H239.627V235.391C239.627 235.771 239.684 236.063 239.799 236.266C239.919 236.464 240.075 236.599 240.268 236.672C240.46 236.745 240.674 236.781 240.908 236.781C241.085 236.781 241.247 236.768 241.393 236.742C241.544 236.716 241.658 236.693 241.736 236.672L242.213 238.883C242.062 238.935 241.846 238.992 241.564 239.055C241.288 239.117 240.95 239.154 240.549 239.164C239.84 239.185 239.202 239.078 238.635 238.844C238.067 238.604 237.617 238.234 237.283 237.734C236.955 237.234 236.794 236.609 236.799 235.859V224.125ZM249.465 239.234C248.293 239.234 247.277 238.977 246.418 238.461C245.559 237.945 244.892 237.224 244.418 236.297C243.949 235.37 243.715 234.286 243.715 233.047C243.715 231.807 243.949 230.721 244.418 229.789C244.892 228.857 245.559 228.133 246.418 227.617C247.277 227.102 248.293 226.844 249.465 226.844C250.637 226.844 251.652 227.102 252.512 227.617C253.371 228.133 254.035 228.857 254.504 229.789C254.978 230.721 255.215 231.807 255.215 233.047C255.215 234.286 254.978 235.37 254.504 236.297C254.035 237.224 253.371 237.945 252.512 238.461C251.652 238.977 250.637 239.234 249.465 239.234ZM249.48 236.969C250.116 236.969 250.647 236.794 251.074 236.445C251.501 236.091 251.819 235.617 252.027 235.023C252.241 234.43 252.348 233.768 252.348 233.039C252.348 232.305 252.241 231.641 252.027 231.047C251.819 230.448 251.501 229.971 251.074 229.617C250.647 229.263 250.116 229.086 249.48 229.086C248.829 229.086 248.288 229.263 247.855 229.617C247.428 229.971 247.108 230.448 246.895 231.047C246.686 231.641 246.582 232.305 246.582 233.039C246.582 233.768 246.686 234.43 246.895 235.023C247.108 235.617 247.428 236.091 247.855 236.445C248.288 236.794 248.829 236.969 249.48 236.969ZM270.721 233.953V227H273.549V239H270.807V236.867H270.682C270.411 237.539 269.965 238.089 269.346 238.516C268.731 238.943 267.973 239.156 267.072 239.156C266.286 239.156 265.59 238.982 264.986 238.633C264.387 238.279 263.919 237.766 263.58 237.094C263.242 236.417 263.072 235.599 263.072 234.641V227H265.9V234.203C265.9 234.964 266.109 235.568 266.525 236.016C266.942 236.464 267.489 236.687 268.166 236.687C268.583 236.687 268.986 236.586 269.377 236.383C269.768 236.18 270.088 235.878 270.338 235.477C270.593 235.07 270.721 234.562 270.721 233.953ZM285.941 230.172L283.363 230.453C283.29 230.193 283.163 229.948 282.98 229.719C282.803 229.49 282.564 229.305 282.262 229.164C281.96 229.023 281.59 228.953 281.152 228.953C280.564 228.953 280.069 229.081 279.668 229.336C279.272 229.591 279.077 229.922 279.082 230.328C279.077 230.677 279.204 230.961 279.465 231.18C279.73 231.398 280.168 231.578 280.777 231.719L282.824 232.156C283.96 232.401 284.803 232.789 285.355 233.32C285.913 233.852 286.194 234.547 286.199 235.406C286.194 236.161 285.973 236.828 285.535 237.406C285.103 237.979 284.501 238.427 283.73 238.75C282.96 239.073 282.074 239.234 281.074 239.234C279.605 239.234 278.423 238.927 277.527 238.312C276.632 237.693 276.098 236.831 275.926 235.727L278.684 235.461C278.809 236.003 279.074 236.411 279.48 236.687C279.887 236.964 280.415 237.102 281.066 237.102C281.738 237.102 282.277 236.964 282.684 236.687C283.095 236.411 283.301 236.07 283.301 235.664C283.301 235.32 283.168 235.036 282.902 234.812C282.642 234.589 282.236 234.417 281.684 234.297L279.637 233.867C278.486 233.628 277.634 233.224 277.082 232.656C276.53 232.083 276.257 231.359 276.262 230.484C276.257 229.745 276.457 229.104 276.863 228.562C277.275 228.016 277.845 227.594 278.574 227.297C279.309 226.995 280.155 226.844 281.113 226.844C282.52 226.844 283.626 227.143 284.434 227.742C285.246 228.341 285.749 229.151 285.941 230.172ZM13.1016 261.953V255H15.9297V267H13.1875V264.867H13.0625C12.7917 265.539 12.3464 266.089 11.7266 266.516C11.112 266.943 10.3542 267.156 9.45313 267.156C8.66667 267.156 7.97135 266.982 7.36719 266.633C6.76823 266.279 6.29948 265.766 5.96094 265.094C5.6224 264.417 5.45313 263.599 5.45313 262.641V255H8.28125V262.203C8.28125 262.964 8.48958 263.568 8.90625 264.016C9.32292 264.464 9.86979 264.687 10.5469 264.687C10.9635 264.687 11.3672 264.586 11.7578 264.383C12.1484 264.18 12.4688 263.878 12.7188 263.477C12.974 263.07 13.1016 262.562 13.1016 261.953ZM28.3223 258.172L25.7441 258.453C25.6712 258.193 25.5436 257.948 25.3613 257.719C25.1842 257.49 24.9447 257.305 24.6426 257.164C24.3405 257.023 23.9707 256.953 23.5332 256.953C22.9447 256.953 22.4499 257.081 22.0488 257.336C21.653 257.591 21.4577 257.922 21.4629 258.328C21.4577 258.677 21.5853 258.961 21.8457 259.18C22.1113 259.398 22.5488 259.578 23.1582 259.719L25.2051 260.156C26.3405 260.401 27.1842 260.789 27.7363 261.32C28.2936 261.852 28.5749 262.547 28.5801 263.406C28.5749 264.161 28.3535 264.828 27.916 265.406C27.4837 265.979 26.8822 266.427 26.1113 266.75C25.3405 267.073 24.4551 267.234 23.4551 267.234C21.9863 267.234 20.804 266.927 19.9082 266.312C19.0124 265.693 18.4785 264.831 18.3066 263.727L21.0645 263.461C21.1895 264.003 21.4551 264.411 21.8613 264.687C22.2676 264.964 22.7962 265.102 23.4473 265.102C24.1191 265.102 24.6582 264.964 25.0645 264.687C25.4759 264.411 25.6816 264.07 25.6816 263.664C25.6816 263.32 25.5488 263.036 25.2832 262.812C25.0228 262.589 24.6165 262.417 24.0645 262.297L22.0176 261.867C20.8665 261.628 20.015 261.224 19.4629 260.656C18.9108 260.083 18.6374 259.359 18.6426 258.484C18.6374 257.745 18.8379 257.104 19.2441 256.562C19.6556 256.016 20.2259 255.594 20.9551 255.297C21.6895 254.995 22.5358 254.844 23.4941 254.844C24.9004 254.844 26.0072 255.143 26.8145 255.742C27.627 256.341 28.1296 257.151 28.3223 258.172ZM30.9121 267V255H33.7402V267H30.9121ZM32.334 253.297C31.8861 253.297 31.5007 253.148 31.1777 252.852C30.8548 252.549 30.6934 252.187 30.6934 251.766C30.6934 251.339 30.8548 250.977 31.1777 250.68C31.5007 250.378 31.8861 250.227 32.334 250.227C32.7871 250.227 33.1725 250.378 33.4902 250.68C33.8132 250.977 33.9746 251.339 33.9746 251.766C33.9746 252.187 33.8132 252.549 33.4902 252.852C33.1725 253.148 32.7871 253.297 32.334 253.297ZM39.4766 259.969V267H36.6484V255H39.3516V257.039H39.4922C39.7682 256.367 40.2083 255.833 40.8125 255.437C41.4219 255.042 42.1745 254.844 43.0703 254.844C43.8984 254.844 44.6198 255.021 45.2344 255.375C45.8542 255.729 46.3333 256.242 46.6719 256.914C47.0156 257.586 47.1849 258.401 47.1797 259.359V267H44.3516V259.797C44.3516 258.995 44.1432 258.367 43.7266 257.914C43.3151 257.461 42.7448 257.234 42.0156 257.234C41.5208 257.234 41.0807 257.344 40.6953 257.562C40.3151 257.776 40.0156 258.086 39.7969 258.492C39.5833 258.898 39.4766 259.391 39.4766 259.969ZM55.2734 271.75C54.2578 271.75 53.3854 271.612 52.6563 271.336C51.9271 271.065 51.3411 270.701 50.8984 270.242C50.4557 269.784 50.1484 269.276 49.9766 268.719L52.5234 268.102C52.638 268.336 52.8047 268.568 53.0234 268.797C53.2422 269.031 53.5365 269.224 53.9063 269.375C54.2813 269.531 54.7526 269.609 55.3203 269.609C56.1224 269.609 56.7865 269.414 57.3125 269.023C57.8385 268.638 58.1016 268.003 58.1016 267.117V264.844H57.9609C57.8151 265.135 57.6016 265.435 57.3203 265.742C57.0443 266.049 56.6771 266.307 56.2188 266.516C55.7656 266.724 55.1953 266.828 54.5078 266.828C53.5859 266.828 52.75 266.612 52 266.18C51.2552 265.742 50.6615 265.091 50.2188 264.227C49.7813 263.357 49.5625 262.268 49.5625 260.961C49.5625 259.643 49.7813 258.531 50.2188 257.625C50.6615 256.714 51.2578 256.023 52.0078 255.555C52.7578 255.081 53.5938 254.844 54.5156 254.844C55.2188 254.844 55.7969 254.964 56.25 255.203C56.7083 255.437 57.0729 255.721 57.3437 256.055C57.6146 256.383 57.8203 256.693 57.9609 256.984H58.1172V255H60.9063V267.195C60.9063 268.221 60.6615 269.07 60.1719 269.742C59.6823 270.414 59.013 270.917 58.1641 271.25C57.3151 271.583 56.3516 271.75 55.2734 271.75ZM55.2969 264.609C55.8958 264.609 56.4063 264.464 56.8281 264.172C57.25 263.88 57.5703 263.461 57.7891 262.914C58.0078 262.367 58.1172 261.711 58.1172 260.945C58.1172 260.19 58.0078 259.529 57.7891 258.961C57.5755 258.393 57.2578 257.953 56.8359 257.641C56.4193 257.323 55.9063 257.164 55.2969 257.164C54.6667 257.164 54.1406 257.328 53.7188 257.656C53.2969 257.984 52.9792 258.435 52.7656 259.008C52.5521 259.576 52.4453 260.221 52.4453 260.945C52.4453 261.68 52.5521 262.323 52.7656 262.875C52.9844 263.422 53.3047 263.849 53.7266 264.156C54.1536 264.458 54.6771 264.609 55.2969 264.609ZM74.4961 267.234C73.3242 267.234 72.3086 266.977 71.4492 266.461C70.5898 265.945 69.9232 265.224 69.4492 264.297C68.9805 263.37 68.7461 262.286 68.7461 261.047C68.7461 259.807 68.9805 258.721 69.4492 257.789C69.9232 256.857 70.5898 256.133 71.4492 255.617C72.3086 255.102 73.3242 254.844 74.4961 254.844C75.668 254.844 76.6836 255.102 77.543 255.617C78.4023 256.133 79.0664 256.857 79.5352 257.789C80.0091 258.721 80.2461 259.807 80.2461 261.047C80.2461 262.286 80.0091 263.37 79.5352 264.297C79.0664 265.224 78.4023 265.945 77.543 266.461C76.6836 266.977 75.668 267.234 74.4961 267.234ZM74.5117 264.969C75.1471 264.969 75.6784 264.794 76.1055 264.445C76.5326 264.091 76.8503 263.617 77.0586 263.023C77.2721 262.43 77.3789 261.768 77.3789 261.039C77.3789 260.305 77.2721 259.641 77.0586 259.047C76.8503 258.448 76.5326 257.971 76.1055 257.617C75.6784 257.263 75.1471 257.086 74.5117 257.086C73.8607 257.086 73.319 257.263 72.8867 257.617C72.4596 257.971 72.1393 258.448 71.9258 259.047C71.7174 259.641 71.6133 260.305 71.6133 261.039C71.6133 261.768 71.7174 262.43 71.9258 263.023C72.1393 263.617 72.4596 264.091 72.8867 264.445C73.319 264.794 73.8607 264.969 74.5117 264.969ZM90.2949 261.953V255H93.123V267H90.3809V264.867H90.2559C89.985 265.539 89.5397 266.089 88.9199 266.516C88.3053 266.943 87.5475 267.156 86.6465 267.156C85.86 267.156 85.1647 266.982 84.5605 266.633C83.9616 266.279 83.4928 265.766 83.1543 265.094C82.8158 264.417 82.6465 263.599 82.6465 262.641V255H85.4746V262.203C85.4746 262.964 85.6829 263.568 86.0996 264.016C86.5163 264.464 87.0632 264.687 87.7402 264.687C88.1569 264.687 88.5605 264.586 88.9512 264.383C89.3418 264.18 89.6621 263.878 89.9121 263.477C90.1673 263.07 90.2949 262.562 90.2949 261.953ZM96.0313 267V255H98.7734V257H98.8984C99.1172 256.307 99.4922 255.773 100.023 255.398C100.56 255.018 101.172 254.828 101.859 254.828C102.016 254.828 102.19 254.836 102.383 254.852C102.581 254.862 102.745 254.88 102.875 254.906V257.508C102.755 257.466 102.565 257.43 102.305 257.398C102.049 257.362 101.802 257.344 101.563 257.344C101.047 257.344 100.583 257.456 100.172 257.68C99.7656 257.898 99.4453 258.203 99.2109 258.594C98.9766 258.984 98.8594 259.435 98.8594 259.945V267H96.0313ZM115.445 267.234C114.247 267.234 113.219 266.971 112.359 266.445C111.505 265.919 110.846 265.193 110.383 264.266C109.924 263.333 109.695 262.26 109.695 261.047C109.695 259.828 109.93 258.753 110.398 257.82C110.867 256.883 111.529 256.154 112.383 255.633C113.242 255.107 114.258 254.844 115.43 254.844C116.404 254.844 117.266 255.023 118.016 255.383C118.771 255.737 119.372 256.24 119.82 256.891C120.268 257.536 120.523 258.292 120.586 259.156H117.883C117.773 258.578 117.513 258.096 117.102 257.711C116.695 257.32 116.151 257.125 115.469 257.125C114.891 257.125 114.383 257.281 113.945 257.594C113.508 257.901 113.167 258.344 112.922 258.922C112.682 259.5 112.563 260.193 112.563 261C112.563 261.818 112.682 262.521 112.922 263.109C113.161 263.693 113.497 264.143 113.93 264.461C114.367 264.773 114.88 264.93 115.469 264.93C115.885 264.93 116.258 264.852 116.586 264.695C116.919 264.534 117.198 264.302 117.422 264C117.646 263.698 117.799 263.331 117.883 262.898H120.586C120.518 263.747 120.268 264.5 119.836 265.156C119.404 265.807 118.815 266.318 118.07 266.687C117.326 267.052 116.451 267.234 115.445 267.234ZM125.736 259.969V267H122.908V251H125.674V257.039H125.814C126.096 256.362 126.531 255.828 127.119 255.437C127.713 255.042 128.468 254.844 129.385 254.844C130.218 254.844 130.945 255.018 131.564 255.367C132.184 255.716 132.663 256.227 133.002 256.898C133.346 257.57 133.518 258.391 133.518 259.359V267H130.689V259.797C130.689 258.99 130.481 258.362 130.064 257.914C129.653 257.461 129.075 257.234 128.33 257.234C127.83 257.234 127.382 257.344 126.986 257.562C126.596 257.776 126.288 258.086 126.064 258.492C125.846 258.898 125.736 259.391 125.736 259.969ZM139.854 267.242C139.093 267.242 138.408 267.107 137.799 266.836C137.195 266.56 136.715 266.154 136.361 265.617C136.012 265.081 135.838 264.419 135.838 263.633C135.838 262.956 135.963 262.396 136.213 261.953C136.463 261.51 136.804 261.156 137.236 260.891C137.669 260.625 138.156 260.424 138.697 260.289C139.244 260.148 139.809 260.047 140.393 259.984C141.096 259.911 141.666 259.846 142.104 259.789C142.541 259.727 142.859 259.633 143.057 259.508C143.26 259.378 143.361 259.177 143.361 258.906V258.859C143.361 258.271 143.187 257.815 142.838 257.492C142.489 257.169 141.986 257.008 141.33 257.008C140.637 257.008 140.088 257.159 139.682 257.461C139.281 257.763 139.01 258.12 138.869 258.531L136.229 258.156C136.437 257.427 136.781 256.818 137.26 256.328C137.739 255.833 138.325 255.464 139.018 255.219C139.71 254.969 140.476 254.844 141.314 254.844C141.893 254.844 142.468 254.911 143.041 255.047C143.614 255.182 144.137 255.406 144.611 255.719C145.085 256.026 145.465 256.445 145.752 256.977C146.044 257.508 146.189 258.172 146.189 258.969V267H143.471V265.352H143.377C143.205 265.685 142.963 265.997 142.65 266.289C142.343 266.576 141.955 266.807 141.486 266.984C141.023 267.156 140.479 267.242 139.854 267.242ZM140.588 265.164C141.156 265.164 141.648 265.052 142.064 264.828C142.481 264.599 142.801 264.297 143.025 263.922C143.255 263.547 143.369 263.138 143.369 262.695V261.281C143.281 261.354 143.13 261.422 142.916 261.484C142.708 261.547 142.473 261.602 142.213 261.648C141.952 261.695 141.695 261.737 141.439 261.773C141.184 261.81 140.963 261.841 140.775 261.867C140.354 261.924 139.976 262.018 139.643 262.148C139.309 262.279 139.046 262.461 138.854 262.695C138.661 262.924 138.564 263.221 138.564 263.586C138.564 264.107 138.755 264.5 139.135 264.766C139.515 265.031 139.999 265.164 140.588 265.164ZM155.025 255V257.187H148.127V255H155.025ZM149.83 252.125H152.658V263.391C152.658 263.771 152.715 264.063 152.83 264.266C152.95 264.464 153.106 264.599 153.299 264.672C153.492 264.745 153.705 264.781 153.939 264.781C154.117 264.781 154.278 264.768 154.424 264.742C154.575 264.716 154.689 264.693 154.768 264.672L155.244 266.883C155.093 266.935 154.877 266.992 154.596 267.055C154.32 267.117 153.981 267.154 153.58 267.164C152.872 267.185 152.234 267.078 151.666 266.844C151.098 266.604 150.648 266.234 150.314 265.734C149.986 265.234 149.825 264.609 149.83 263.859V252.125ZM168.082 267.234C166.91 267.234 165.895 266.977 165.035 266.461C164.176 265.945 163.509 265.224 163.035 264.297C162.566 263.37 162.332 262.286 162.332 261.047C162.332 259.807 162.566 258.721 163.035 257.789C163.509 256.857 164.176 256.133 165.035 255.617C165.895 255.102 166.91 254.844 168.082 254.844C169.254 254.844 170.27 255.102 171.129 255.617C171.988 256.133 172.652 256.857 173.121 257.789C173.595 258.721 173.832 259.807 173.832 261.047C173.832 262.286 173.595 263.37 173.121 264.297C172.652 265.224 171.988 265.945 171.129 266.461C170.27 266.977 169.254 267.234 168.082 267.234ZM168.098 264.969C168.733 264.969 169.264 264.794 169.691 264.445C170.118 264.091 170.436 263.617 170.645 263.023C170.858 262.43 170.965 261.768 170.965 261.039C170.965 260.305 170.858 259.641 170.645 259.047C170.436 258.448 170.118 257.971 169.691 257.617C169.264 257.263 168.733 257.086 168.098 257.086C167.447 257.086 166.905 257.263 166.473 257.617C166.046 257.971 165.725 258.448 165.512 259.047C165.303 259.641 165.199 260.305 165.199 261.039C165.199 261.768 165.303 262.43 165.512 263.023C165.725 263.617 166.046 264.091 166.473 264.445C166.905 264.794 167.447 264.969 168.098 264.969ZM176.232 271.5V255H179.014V256.984H179.178C179.324 256.693 179.529 256.383 179.795 256.055C180.061 255.721 180.42 255.437 180.873 255.203C181.326 254.964 181.904 254.844 182.607 254.844C183.535 254.844 184.37 255.081 185.115 255.555C185.865 256.023 186.459 256.719 186.896 257.641C187.339 258.557 187.561 259.682 187.561 261.016C187.561 262.333 187.344 263.453 186.912 264.375C186.48 265.297 185.891 266 185.146 266.484C184.402 266.969 183.558 267.211 182.615 267.211C181.928 267.211 181.357 267.096 180.904 266.867C180.451 266.638 180.087 266.362 179.811 266.039C179.54 265.711 179.329 265.401 179.178 265.109H179.061V271.5H176.232ZM179.006 261C179.006 261.776 179.115 262.456 179.334 263.039C179.558 263.622 179.878 264.078 180.295 264.406C180.717 264.729 181.227 264.891 181.826 264.891C182.451 264.891 182.975 264.724 183.396 264.391C183.818 264.052 184.136 263.591 184.35 263.008C184.568 262.419 184.678 261.75 184.678 261C184.678 260.255 184.571 259.594 184.357 259.016C184.144 258.437 183.826 257.984 183.404 257.656C182.982 257.328 182.456 257.164 181.826 257.164C181.222 257.164 180.709 257.323 180.287 257.641C179.865 257.958 179.545 258.404 179.326 258.977C179.113 259.549 179.006 260.224 179.006 261ZM195.975 255V257.187H189.076V255H195.975ZM190.779 252.125H193.607V263.391C193.607 263.771 193.665 264.063 193.779 264.266C193.899 264.464 194.055 264.599 194.248 264.672C194.441 264.745 194.654 264.781 194.889 264.781C195.066 264.781 195.227 264.768 195.373 264.742C195.524 264.716 195.639 264.693 195.717 264.672L196.193 266.883C196.042 266.935 195.826 266.992 195.545 267.055C195.269 267.117 194.93 267.154 194.529 267.164C193.821 267.185 193.183 267.078 192.615 266.844C192.048 266.604 191.597 266.234 191.264 265.734C190.936 265.234 190.774 264.609 190.779 263.859V252.125ZM198.34 267V255H201.168V267H198.34ZM199.762 253.297C199.314 253.297 198.928 253.148 198.605 252.852C198.283 252.549 198.121 252.187 198.121 251.766C198.121 251.339 198.283 250.977 198.605 250.68C198.928 250.378 199.314 250.227 199.762 250.227C200.215 250.227 200.6 250.378 200.918 250.68C201.241 250.977 201.402 251.339 201.402 251.766C201.402 252.187 201.241 252.549 200.918 252.852C200.6 253.148 200.215 253.297 199.762 253.297ZM209.311 267.234C208.139 267.234 207.123 266.977 206.264 266.461C205.404 265.945 204.738 265.224 204.264 264.297C203.795 263.37 203.561 262.286 203.561 261.047C203.561 259.807 203.795 258.721 204.264 257.789C204.738 256.857 205.404 256.133 206.264 255.617C207.123 255.102 208.139 254.844 209.311 254.844C210.482 254.844 211.498 255.102 212.357 255.617C213.217 256.133 213.881 256.857 214.35 257.789C214.824 258.721 215.061 259.807 215.061 261.047C215.061 262.286 214.824 263.37 214.35 264.297C213.881 265.224 213.217 265.945 212.357 266.461C211.498 266.977 210.482 267.234 209.311 267.234ZM209.326 264.969C209.962 264.969 210.493 264.794 210.92 264.445C211.347 264.091 211.665 263.617 211.873 263.023C212.087 262.43 212.193 261.768 212.193 261.039C212.193 260.305 212.087 259.641 211.873 259.047C211.665 258.448 211.347 257.971 210.92 257.617C210.493 257.263 209.962 257.086 209.326 257.086C208.675 257.086 208.133 257.263 207.701 257.617C207.274 257.971 206.954 258.448 206.74 259.047C206.532 259.641 206.428 260.305 206.428 261.039C206.428 261.768 206.532 262.43 206.74 263.023C206.954 263.617 207.274 264.091 207.701 264.445C208.133 264.794 208.675 264.969 209.326 264.969ZM220.289 259.969V267H217.461V255H220.164V257.039H220.305C220.581 256.367 221.021 255.833 221.625 255.437C222.234 255.042 222.987 254.844 223.883 254.844C224.711 254.844 225.432 255.021 226.047 255.375C226.667 255.729 227.146 256.242 227.484 256.914C227.828 257.586 227.997 258.401 227.992 259.359V267H225.164V259.797C225.164 258.995 224.956 258.367 224.539 257.914C224.128 257.461 223.557 257.234 222.828 257.234C222.333 257.234 221.893 257.344 221.508 257.562C221.128 257.776 220.828 258.086 220.609 258.492C220.396 258.898 220.289 259.391 220.289 259.969ZM232.609 267.172C232.135 267.172 231.729 267.005 231.391 266.672C231.052 266.339 230.885 265.932 230.891 265.453C230.885 264.984 231.052 264.583 231.391 264.25C231.729 263.917 232.135 263.75 232.609 263.75C233.068 263.75 233.466 263.917 233.805 264.25C234.148 264.583 234.323 264.984 234.328 265.453C234.323 265.771 234.24 266.06 234.078 266.32C233.922 266.581 233.714 266.789 233.453 266.945C233.198 267.096 232.917 267.172 232.609 267.172Z" fill="white"/>
</svg>
