<svg xmlns="http://www.w3.org/2000/svg" xmlns:xlink="http://www.w3.org/1999/xlink" width="500" zoomAndPan="magnify" viewBox="0 0 375 374.999991" height="500" preserveAspectRatio="xMidYMid meet" version="1.0"><defs><clipPath id="id1"><path d="M 12.75 12.75 L 365.71875 12.75 L 365.71875 365.71875 L 12.75 365.71875 Z M 12.75 12.75 " clip-rule="nonzero"/></clipPath><clipPath id="id2"><path d="M 112.5 112.5 L 262.5 112.5 L 262.5 262.5 L 112.5 262.5 Z M 112.5 112.5 " clip-rule="nonzero"/></clipPath></defs><g clip-path="url(#id1)"><path fill="#40cbb4" d="M 189.234375 365.71875 C 142.113281 365.71875 97.746094 347.378906 64.453125 314.015625 C 31.089844 280.71875 12.75 236.351562 12.75 189.234375 C 12.75 142.113281 31.089844 97.746094 64.453125 64.453125 C 97.746094 31.089844 142.113281 12.75 189.234375 12.75 C 236.351562 12.75 280.71875 31.089844 314.015625 64.453125 C 347.378906 97.816406 365.71875 142.113281 365.71875 189.234375 C 365.71875 236.351562 347.378906 280.71875 314.015625 314.015625 C 280.71875 347.378906 236.351562 365.71875 189.234375 365.71875 Z M 189.234375 23.332031 C 144.9375 23.332031 103.25 40.613281 71.929688 71.929688 C 40.613281 103.25 23.332031 144.9375 23.332031 189.234375 C 23.332031 233.53125 40.613281 275.21875 71.929688 306.535156 C 103.25 337.855469 144.9375 355.136719 189.234375 355.136719 C 233.53125 355.136719 275.21875 337.855469 306.535156 306.535156 C 337.855469 275.21875 355.136719 233.53125 355.136719 189.234375 C 355.136719 144.9375 337.855469 103.25 306.535156 71.929688 C 275.21875 40.613281 233.53125 23.332031 189.234375 23.332031 Z M 189.234375 23.332031 " fill-opacity="1" fill-rule="nonzero"/></g><g clip-path="url(#id2)"><path fill="#40cbb4" d="M 245.699219 112.5 C 220.765625 112.5 187.3125 129.605469 164.847656 159.011719 L 146.222656 159.011719 C 132.765625 159.011719 125.054688 169.054688 119.746094 179.679688 L 112.636719 193.894531 L 146.222656 193.894531 L 163.667969 211.335938 L 181.109375 228.777344 L 181.109375 262.367188 L 195.324219 255.261719 C 205.949219 249.949219 215.992188 242.234375 215.992188 228.777344 L 215.992188 210.15625 C 245.398438 187.691406 262.503906 154.238281 262.503906 129.304688 L 262.503906 112.5 Z M 215.992188 147.382812 C 222.414062 147.382812 227.621094 152.589844 227.621094 159.011719 C 227.621094 165.433594 222.414062 170.640625 215.992188 170.640625 C 209.570312 170.640625 204.363281 165.433594 204.363281 159.011719 C 204.363281 152.589844 209.570312 147.382812 215.992188 147.382812 Z M 140.410156 217.152344 L 134.597656 222.964844 C 126.199219 231.363281 122.96875 252.035156 122.96875 252.035156 C 122.96875 252.035156 142.710938 249.734375 152.039062 240.40625 L 157.851562 234.59375 Z M 140.410156 217.152344 " fill-opacity="1" fill-rule="nonzero"/></g></svg>