<svg xmlns="http://www.w3.org/2000/svg" xmlns:xlink="http://www.w3.org/1999/xlink" width="500" zoomAndPan="magnify" viewBox="0 0 375 374.999991" height="500" preserveAspectRatio="xMidYMid meet" version="1.0"><defs><clipPath id="id1"><path d="M 12.75 12.75 L 365.71875 12.75 L 365.71875 365.71875 L 12.75 365.71875 Z M 12.75 12.75 " clip-rule="nonzero"/></clipPath><clipPath id="id2"><path d="M 105 100 L 276 100 L 276 281.910156 L 105 281.910156 Z M 105 100 " clip-rule="nonzero"/></clipPath></defs><g clip-path="url(#id1)"><path fill="#1d95d2" d="M 189.234375 365.71875 C 142.113281 365.71875 97.746094 347.378906 64.453125 314.015625 C 31.089844 280.71875 12.75 236.351562 12.75 189.234375 C 12.75 142.113281 31.089844 97.746094 64.453125 64.453125 C 97.746094 31.089844 142.113281 12.75 189.234375 12.75 C 236.351562 12.75 280.71875 31.089844 314.015625 64.453125 C 347.378906 97.816406 365.71875 142.113281 365.71875 189.234375 C 365.71875 236.351562 347.378906 280.71875 314.015625 314.015625 C 280.71875 347.378906 236.351562 365.71875 189.234375 365.71875 Z M 189.234375 23.332031 C 144.9375 23.332031 103.25 40.613281 71.929688 71.929688 C 40.613281 103.25 23.332031 144.9375 23.332031 189.234375 C 23.332031 233.53125 40.613281 275.21875 71.929688 306.535156 C 103.25 337.855469 144.9375 355.136719 189.234375 355.136719 C 233.53125 355.136719 275.21875 337.855469 306.535156 306.535156 C 337.855469 275.21875 355.136719 233.53125 355.136719 189.234375 C 355.136719 144.9375 337.855469 103.25 306.535156 71.929688 C 275.21875 40.613281 233.53125 23.332031 189.234375 23.332031 Z M 189.234375 23.332031 " fill-opacity="1" fill-rule="nonzero"/></g><g clip-path="url(#id2)"><path fill="#1d95d2" d="M 241.058594 281.9375 C 238.816406 281.941406 236.59375 281.726562 234.394531 281.292969 C 232.195312 280.855469 230.058594 280.210938 227.988281 279.359375 C 225.914062 278.503906 223.945312 277.457031 222.082031 276.214844 C 220.214844 274.972656 218.492188 273.558594 216.90625 271.976562 L 117.636719 172.992188 C 116.660156 172.011719 115.734375 170.984375 114.859375 169.910156 C 113.980469 168.839844 113.160156 167.726562 112.394531 166.574219 C 111.628906 165.417969 110.917969 164.230469 110.269531 163.007812 C 109.617188 161.789062 109.03125 160.535156 108.503906 159.257812 C 107.976562 157.976562 107.511719 156.675781 107.113281 155.351562 C 106.714844 154.023438 106.382812 152.683594 106.117188 151.328125 C 105.847656 149.96875 105.648438 148.601562 105.515625 147.222656 C 105.382812 145.847656 105.316406 144.46875 105.320312 143.082031 C 105.324219 141.699219 105.394531 140.320312 105.53125 138.945312 C 105.671875 137.566406 105.875 136.203125 106.148438 134.84375 C 106.421875 133.488281 106.761719 132.148438 107.164062 130.824219 C 107.570312 129.503906 108.039062 128.203125 108.570312 126.925781 C 109.101562 125.644531 109.695312 124.398438 110.351562 123.179688 C 111.003906 121.957031 111.71875 120.773438 112.488281 119.625 C 113.261719 118.472656 114.085938 117.363281 114.96875 116.296875 C 115.847656 115.226562 116.777344 114.203125 117.761719 113.226562 C 118.742188 112.246094 119.765625 111.320312 120.839844 110.441406 C 121.910156 109.5625 123.023438 108.738281 124.175781 107.96875 C 125.332031 107.199219 126.519531 106.488281 127.742188 105.835938 C 128.964844 105.183594 130.21875 104.59375 131.5 104.0625 C 132.78125 103.53125 134.082031 103.0625 135.410156 102.660156 C 136.738281 102.257812 138.082031 101.917969 139.441406 101.648438 C 140.800781 101.375 142.171875 101.171875 143.554688 101.03125 C 144.933594 100.894531 146.316406 100.824219 147.703125 100.820312 C 149.09375 100.816406 150.476562 100.882812 151.855469 101.015625 C 153.238281 101.148438 154.609375 101.347656 155.972656 101.613281 C 157.332031 101.878906 158.675781 102.210938 160.007812 102.609375 C 161.335938 103.007812 162.640625 103.46875 163.925781 103.996094 C 165.207031 104.519531 166.460938 105.109375 167.6875 105.753906 C 168.914062 106.402344 170.105469 107.109375 171.261719 107.875 C 172.417969 108.640625 173.53125 109.457031 174.609375 110.332031 C 175.683594 111.203125 176.714844 112.128906 177.699219 113.101562 L 261.046875 196.210938 C 261.410156 196.59375 261.691406 197.03125 261.882812 197.523438 C 262.078125 198.015625 262.171875 198.527344 262.164062 199.054688 C 262.15625 199.585938 262.050781 200.09375 261.84375 200.578125 C 261.636719 201.066406 261.347656 201.5 260.972656 201.871094 C 260.597656 202.246094 260.164062 202.535156 259.675781 202.742188 C 259.1875 202.945312 258.679688 203.054688 258.148438 203.058594 C 257.617188 203.066406 257.105469 202.972656 256.609375 202.78125 C 256.117188 202.585938 255.679688 202.308594 255.292969 201.945312 L 171.949219 118.839844 C 171.152344 118.046875 170.320312 117.292969 169.453125 116.582031 C 168.582031 115.871094 167.679688 115.203125 166.746094 114.582031 C 165.808594 113.957031 164.847656 113.382812 163.855469 112.851562 C 162.863281 112.324219 161.847656 111.84375 160.808594 111.417969 C 159.769531 110.988281 158.714844 110.609375 157.636719 110.285156 C 156.5625 109.957031 155.472656 109.6875 154.367188 109.46875 C 153.265625 109.25 152.15625 109.085938 151.035156 108.972656 C 149.917969 108.863281 148.796875 108.808594 147.671875 108.808594 C 146.546875 108.808594 145.425781 108.863281 144.304688 108.972656 C 143.1875 109.085938 142.074219 109.25 140.972656 109.46875 C 139.871094 109.6875 138.78125 109.957031 137.703125 110.28125 C 136.628906 110.609375 135.570312 110.984375 134.53125 111.414062 C 133.492188 111.84375 132.476562 112.324219 131.484375 112.851562 C 130.492188 113.378906 129.53125 113.957031 128.59375 114.578125 C 127.660156 115.203125 126.757812 115.867188 125.886719 116.578125 C 125.019531 117.289062 124.1875 118.042969 123.390625 118.835938 C 122.597656 119.628906 121.84375 120.457031 121.128906 121.324219 C 120.414062 122.191406 119.746094 123.089844 119.121094 124.023438 C 118.496094 124.957031 117.917969 125.917969 117.390625 126.90625 C 116.859375 127.894531 116.378906 128.90625 115.949219 129.941406 C 115.519531 130.976562 115.140625 132.03125 114.8125 133.105469 C 114.488281 134.179688 114.214844 135.265625 113.996094 136.363281 C 113.773438 137.464844 113.609375 138.570312 113.5 139.6875 C 113.390625 140.804688 113.335938 141.921875 113.335938 143.042969 C 113.335938 144.164062 113.390625 145.285156 113.5 146.398438 C 113.609375 147.515625 113.773438 148.625 113.992188 149.722656 C 114.214844 150.824219 114.484375 151.910156 114.8125 152.980469 C 115.136719 154.054688 115.515625 155.109375 115.945312 156.144531 C 116.378906 157.179688 116.859375 158.195312 117.386719 159.183594 C 117.917969 160.171875 118.496094 161.132812 119.121094 162.066406 C 119.746094 162.996094 120.414062 163.894531 121.125 164.761719 C 121.839844 165.628906 122.59375 166.460938 123.390625 167.253906 L 222.679688 266.238281 C 223.285156 266.820312 223.917969 267.375 224.578125 267.898438 C 225.238281 268.417969 225.921875 268.910156 226.632812 269.367188 C 227.339844 269.820312 228.066406 270.242188 228.816406 270.628906 C 229.566406 271.015625 230.332031 271.363281 231.117188 271.675781 C 231.898438 271.984375 232.695312 272.257812 233.503906 272.492188 C 234.316406 272.726562 235.132812 272.921875 235.960938 273.078125 C 236.792969 273.230469 237.625 273.347656 238.464844 273.421875 C 239.304688 273.496094 240.148438 273.527344 240.988281 273.519531 C 241.832031 273.511719 242.675781 273.464844 243.511719 273.375 C 244.351562 273.285156 245.183594 273.15625 246.007812 272.988281 C 246.835938 272.820312 247.648438 272.609375 248.457031 272.359375 C 249.261719 272.113281 250.050781 271.824219 250.828125 271.5 C 251.605469 271.175781 252.367188 270.8125 253.109375 270.414062 C 253.851562 270.015625 254.570312 269.578125 255.273438 269.109375 C 255.972656 268.640625 256.648438 268.140625 257.296875 267.605469 C 257.949219 267.070312 258.574219 266.507812 259.167969 265.914062 C 259.765625 265.316406 260.328125 264.695312 260.863281 264.046875 C 261.402344 263.394531 261.902344 262.722656 262.371094 262.023438 C 262.84375 261.324219 263.277344 260.605469 263.675781 259.867188 C 264.074219 259.125 264.4375 258.367188 264.761719 257.59375 C 265.089844 256.816406 265.375 256.027344 265.625 255.222656 C 265.875 254.421875 266.082031 253.605469 266.25 252.785156 C 266.421875 251.960938 266.550781 251.128906 266.636719 250.292969 C 266.726562 249.457031 266.773438 248.621094 266.78125 247.777344 C 266.789062 246.9375 266.753906 246.097656 266.679688 245.261719 C 266.601562 244.425781 266.488281 243.59375 266.332031 242.765625 C 266.175781 241.941406 265.980469 241.125 265.742188 240.316406 C 265.507812 239.507812 265.234375 238.714844 264.921875 237.933594 C 264.605469 237.152344 264.257812 236.390625 263.867188 235.644531 C 263.480469 234.898438 263.058594 234.171875 262.601562 233.464844 C 262.140625 232.761719 261.648438 232.078125 261.125 231.421875 C 260.601562 230.761719 260.046875 230.132812 259.457031 229.527344 L 173.507812 143.824219 C 173.09375 143.410156 172.660156 143.019531 172.207031 142.648438 C 171.753906 142.277344 171.285156 141.929688 170.796875 141.605469 C 170.308594 141.28125 169.808594 140.980469 169.289062 140.703125 C 168.773438 140.429688 168.246094 140.179688 167.703125 139.957031 C 167.160156 139.730469 166.609375 139.535156 166.050781 139.363281 C 165.488281 139.195312 164.921875 139.054688 164.34375 138.941406 C 163.769531 138.824219 163.191406 138.738281 162.609375 138.683594 C 162.023438 138.625 161.441406 138.597656 160.855469 138.597656 C 160.265625 138.597656 159.683594 138.625 159.097656 138.683594 C 158.515625 138.738281 157.9375 138.824219 157.363281 138.941406 C 156.785156 139.054688 156.21875 139.195312 155.65625 139.363281 C 155.097656 139.535156 154.546875 139.730469 154.003906 139.957031 C 153.460938 140.179688 152.933594 140.429688 152.417969 140.703125 C 151.898438 140.980469 151.398438 141.28125 150.910156 141.605469 C 150.421875 141.929688 149.953125 142.277344 149.5 142.648438 C 149.046875 143.019531 148.613281 143.410156 148.199219 143.824219 C 147.78125 144.238281 147.390625 144.667969 147.019531 145.121094 C 146.644531 145.574219 146.296875 146.042969 145.972656 146.527344 C 145.644531 147.015625 145.34375 147.515625 145.070312 148.03125 C 144.792969 148.546875 144.542969 149.074219 144.316406 149.613281 C 144.09375 150.152344 143.894531 150.703125 143.726562 151.261719 C 143.554688 151.820312 143.414062 152.386719 143.300781 152.960938 C 143.183594 153.535156 143.097656 154.113281 143.042969 154.695312 C 142.984375 155.277344 142.957031 155.859375 142.957031 156.445312 C 142.957031 157.027344 142.984375 157.609375 143.042969 158.191406 C 143.097656 158.773438 143.183594 159.351562 143.300781 159.925781 C 143.414062 160.5 143.554688 161.066406 143.726562 161.625 C 143.894531 162.183594 144.09375 162.734375 144.316406 163.273438 C 144.542969 163.8125 144.792969 164.339844 145.070312 164.855469 C 145.34375 165.371094 145.644531 165.871094 145.972656 166.359375 C 146.296875 166.84375 146.644531 167.3125 147.019531 167.765625 C 147.390625 168.21875 147.78125 168.648438 148.199219 169.0625 L 218.226562 238.902344 C 218.417969 239.09375 218.585938 239.296875 218.734375 239.519531 C 218.882812 239.738281 219.007812 239.972656 219.109375 240.21875 C 219.210938 240.464844 219.289062 240.71875 219.339844 240.980469 C 219.394531 241.242188 219.417969 241.507812 219.417969 241.773438 C 219.417969 242.039062 219.390625 242.304688 219.339844 242.566406 C 219.289062 242.824219 219.210938 243.078125 219.109375 243.324219 C 219.007812 243.570312 218.878906 243.804688 218.730469 244.027344 C 218.582031 244.25 218.414062 244.453125 218.226562 244.640625 C 218.039062 244.832031 217.832031 245 217.609375 245.144531 C 217.386719 245.292969 217.152344 245.417969 216.90625 245.519531 C 216.660156 245.625 216.40625 245.699219 216.144531 245.753906 C 215.882812 245.804688 215.617188 245.832031 215.347656 245.832031 C 215.082031 245.832031 214.816406 245.804688 214.554688 245.753906 C 214.292969 245.703125 214.039062 245.625 213.792969 245.523438 C 213.546875 245.421875 213.3125 245.296875 213.089844 245.148438 C 212.867188 245 212.660156 244.832031 212.472656 244.644531 L 142.449219 174.820312 C 141.859375 174.214844 141.296875 173.585938 140.765625 172.925781 C 140.234375 172.269531 139.734375 171.585938 139.269531 170.878906 C 138.804688 170.171875 138.375 169.445312 137.984375 168.699219 C 137.589844 167.949219 137.234375 167.183594 136.914062 166.402344 C 136.597656 165.617188 136.316406 164.820312 136.078125 164.011719 C 135.835938 163.203125 135.636719 162.382812 135.476562 161.550781 C 135.316406 160.722656 135.199219 159.886719 135.121094 159.046875 C 135.042969 158.207031 135.003906 157.363281 135.007812 156.515625 C 135.011719 155.671875 135.058594 154.828125 135.144531 153.988281 C 135.230469 153.148438 135.359375 152.316406 135.527344 151.488281 C 135.695312 150.660156 135.902344 149.839844 136.152344 149.035156 C 136.402344 148.226562 136.6875 147.433594 137.015625 146.652344 C 137.339844 145.875 137.703125 145.109375 138.105469 144.367188 C 138.503906 143.621094 138.941406 142.898438 139.414062 142.199219 C 139.886719 141.496094 140.390625 140.820312 140.925781 140.164062 C 141.464844 139.511719 142.035156 138.886719 142.632812 138.289062 C 143.230469 137.691406 143.859375 137.125 144.511719 136.589844 C 145.167969 136.054688 145.847656 135.550781 146.550781 135.082031 C 147.253906 134.609375 147.980469 134.175781 148.726562 133.777344 C 149.472656 133.375 150.238281 133.011719 151.019531 132.6875 C 151.800781 132.363281 152.597656 132.078125 153.40625 131.828125 C 154.21875 131.582031 155.039062 131.375 155.867188 131.207031 C 156.699219 131.039062 157.535156 130.910156 158.378906 130.824219 C 159.21875 130.738281 160.066406 130.691406 160.914062 130.6875 C 161.757812 130.683594 162.605469 130.71875 163.449219 130.796875 C 164.292969 130.875 165.128906 130.996094 165.960938 131.15625 C 166.792969 131.316406 167.617188 131.515625 168.429688 131.753906 C 169.242188 131.992188 170.039062 132.273438 170.824219 132.589844 C 171.609375 132.90625 172.378906 133.261719 173.128906 133.652344 C 173.878906 134.046875 174.609375 134.472656 175.316406 134.9375 C 176.023438 135.402344 176.710938 135.898438 177.367188 136.425781 C 178.027344 136.957031 178.660156 137.515625 179.265625 138.109375 L 265.214844 223.8125 C 266.402344 224.996094 267.5 226.261719 268.5 227.605469 C 269.5 228.949219 270.398438 230.359375 271.1875 231.839844 C 271.980469 233.316406 272.660156 234.84375 273.226562 236.417969 C 273.792969 237.996094 274.238281 239.605469 274.566406 241.246094 C 274.894531 242.890625 275.101562 244.546875 275.183594 246.222656 C 275.265625 247.894531 275.222656 249.5625 275.058594 251.230469 C 274.894531 252.898438 274.609375 254.542969 274.199219 256.167969 C 273.792969 257.792969 273.265625 259.378906 272.625 260.925781 C 271.980469 262.472656 271.226562 263.964844 270.363281 265.402344 C 269.5 266.839844 268.535156 268.203125 267.46875 269.5 C 266.40625 270.792969 265.25 272.003906 264.003906 273.128906 C 262.757812 274.25 261.4375 275.277344 260.042969 276.210938 C 258.644531 277.140625 257.1875 277.960938 255.667969 278.679688 C 254.148438 279.394531 252.585938 279.996094 250.980469 280.480469 C 249.371094 280.964844 247.738281 281.332031 246.074219 281.574219 C 244.414062 281.820312 242.742188 281.941406 241.0625 281.941406 Z M 241.058594 281.9375 " fill-opacity="1" fill-rule="nonzero"/></g></svg>