<svg xmlns="http://www.w3.org/2000/svg" xmlns:xlink="http://www.w3.org/1999/xlink" width="130" zoomAndPan="magnify" viewBox="0 0 97.5 97.499997" height="130" preserveAspectRatio="xMidYMid meet" version="1.0"><defs><clipPath id="id1"><path d="M 2.6875 2.6875 L 94.738281 2.6875 L 94.738281 94.738281 L 2.6875 94.738281 Z M 2.6875 2.6875 " clip-rule="nonzero"/></clipPath><clipPath id="id2"><path d="M 28.003906 22.605469 L 69.253906 22.605469 L 69.253906 75 L 28.003906 75 Z M 28.003906 22.605469 " clip-rule="nonzero"/></clipPath></defs><g clip-path="url(#id1)"><path fill="#ffc20b" d="M 48.714844 94.738281 C 36.425781 94.738281 24.855469 89.957031 16.171875 81.253906 C 7.46875 72.574219 2.6875 61 2.6875 48.714844 C 2.6875 36.425781 7.46875 24.855469 16.171875 16.171875 C 24.855469 7.46875 36.425781 2.6875 48.714844 2.6875 C 61 2.6875 72.574219 7.46875 81.253906 16.171875 C 89.957031 24.871094 94.738281 36.425781 94.738281 48.714844 C 94.738281 61 89.957031 72.574219 81.253906 81.253906 C 72.574219 89.957031 61 94.738281 48.714844 94.738281 Z M 48.714844 5.445312 C 37.160156 5.445312 26.289062 9.953125 18.121094 18.121094 C 9.953125 26.289062 5.445312 37.160156 5.445312 48.714844 C 5.445312 60.265625 9.953125 71.136719 18.121094 79.304688 C 26.289062 87.472656 37.160156 91.980469 48.714844 91.980469 C 60.265625 91.980469 71.136719 87.472656 79.304688 79.304688 C 87.472656 71.136719 91.980469 60.265625 91.980469 48.714844 C 91.980469 37.160156 87.472656 26.289062 79.304688 18.121094 C 71.136719 9.953125 60.265625 5.445312 48.714844 5.445312 Z M 48.714844 5.445312 " fill-opacity="1" fill-rule="nonzero"/></g><path fill="#ffc20b" d="M 48.621094 50.523438 C 49.324219 50.523438 50.023438 50.457031 50.710938 50.316406 C 51.402344 50.175781 52.070312 49.972656 52.722656 49.699219 C 53.371094 49.425781 53.988281 49.089844 54.574219 48.695312 C 55.15625 48.300781 55.699219 47.847656 56.195312 47.34375 C 56.695312 46.839844 57.136719 46.292969 57.527344 45.699219 C 57.917969 45.105469 58.25 44.480469 58.519531 43.820312 C 58.789062 43.164062 58.992188 42.484375 59.128906 41.785156 C 59.265625 41.085938 59.335938 40.378906 59.335938 39.667969 C 59.335938 38.953125 59.265625 38.246094 59.128906 37.546875 C 58.992188 36.847656 58.789062 36.171875 58.519531 35.511719 C 58.25 34.851562 57.917969 34.226562 57.527344 33.632812 C 57.136719 33.042969 56.695312 32.492188 56.195312 31.988281 C 55.699219 31.484375 55.15625 31.035156 54.574219 30.636719 C 53.988281 30.242188 53.371094 29.90625 52.722656 29.636719 C 52.070312 29.363281 51.402344 29.15625 50.710938 29.015625 C 50.023438 28.878906 49.324219 28.808594 48.621094 28.808594 C 47.917969 28.808594 47.222656 28.878906 46.53125 29.015625 C 45.839844 29.15625 45.171875 29.363281 44.523438 29.636719 C 43.871094 29.90625 43.253906 30.242188 42.667969 30.636719 C 42.085938 31.035156 41.542969 31.484375 41.046875 31.988281 C 40.550781 32.492188 40.105469 33.042969 39.714844 33.632812 C 39.324219 34.226562 38.992188 34.851562 38.722656 35.511719 C 38.453125 36.171875 38.25 36.847656 38.113281 37.546875 C 37.976562 38.246094 37.910156 38.953125 37.910156 39.667969 C 37.910156 40.378906 37.980469 41.085938 38.117188 41.785156 C 38.253906 42.484375 38.457031 43.160156 38.726562 43.820312 C 38.996094 44.480469 39.328125 45.105469 39.71875 45.695312 C 40.109375 46.289062 40.550781 46.835938 41.050781 47.339844 C 41.546875 47.84375 42.085938 48.296875 42.671875 48.691406 C 43.257812 49.085938 43.875 49.421875 44.523438 49.695312 C 45.171875 49.96875 45.84375 50.175781 46.53125 50.316406 C 47.222656 50.453125 47.917969 50.523438 48.621094 50.523438 Z M 48.621094 31.03125 C 49.179688 31.03125 49.734375 31.089844 50.285156 31.199219 C 50.832031 31.308594 51.363281 31.472656 51.882812 31.691406 C 52.398438 31.90625 52.890625 32.171875 53.355469 32.488281 C 53.820312 32.800781 54.25 33.160156 54.644531 33.5625 C 55.039062 33.960938 55.394531 34.398438 55.703125 34.871094 C 56.015625 35.339844 56.277344 35.839844 56.492188 36.363281 C 56.707031 36.886719 56.867188 37.425781 56.976562 37.980469 C 57.085938 38.539062 57.140625 39.101562 57.140625 39.667969 C 57.140625 40.234375 57.085938 40.796875 56.976562 41.351562 C 56.867188 41.90625 56.707031 42.445312 56.492188 42.972656 C 56.277344 43.496094 56.015625 43.992188 55.703125 44.464844 C 55.394531 44.933594 55.039062 45.371094 54.644531 45.773438 C 54.25 46.171875 53.820312 46.53125 53.355469 46.847656 C 52.890625 47.160156 52.398438 47.425781 51.882812 47.644531 C 51.363281 47.859375 50.832031 48.023438 50.285156 48.136719 C 49.734375 48.246094 49.179688 48.300781 48.621094 48.300781 C 48.0625 48.300781 47.507812 48.246094 46.960938 48.136719 C 46.410156 48.023438 45.878906 47.859375 45.363281 47.644531 C 44.84375 47.425781 44.355469 47.160156 43.890625 46.847656 C 43.421875 46.53125 42.992188 46.171875 42.597656 45.773438 C 42.203125 45.371094 41.847656 44.933594 41.539062 44.464844 C 41.226562 43.992188 40.964844 43.496094 40.75 42.972656 C 40.539062 42.445312 40.375 41.90625 40.265625 41.351562 C 40.15625 40.796875 40.101562 40.234375 40.101562 39.667969 C 40.101562 39.101562 40.160156 38.539062 40.269531 37.984375 C 40.378906 37.425781 40.539062 36.886719 40.753906 36.363281 C 40.96875 35.839844 41.230469 35.34375 41.542969 34.871094 C 41.851562 34.402344 42.207031 33.964844 42.601562 33.566406 C 42.996094 33.164062 43.425781 32.804688 43.890625 32.492188 C 44.355469 32.175781 44.847656 31.910156 45.363281 31.691406 C 45.878906 31.476562 46.410156 31.3125 46.960938 31.199219 C 47.507812 31.089844 48.0625 31.035156 48.621094 31.03125 Z M 48.621094 31.03125 " fill-opacity="1" fill-rule="nonzero"/><g clip-path="url(#id2)"><path fill="#ffc20b" d="M 30.726562 68.652344 L 30.746094 68.652344 L 36.210938 68.617188 C 36.371094 68.621094 36.496094 68.691406 36.574219 68.832031 L 39.28125 73.652344 C 39.511719 74.066406 39.828125 74.394531 40.234375 74.632812 C 40.640625 74.871094 41.082031 74.992188 41.550781 74.988281 C 42.019531 74.992188 42.453125 74.875 42.859375 74.636719 C 43.265625 74.398438 43.582031 74.074219 43.8125 73.664062 L 48.621094 65.230469 L 53.425781 73.667969 C 53.660156 74.078125 53.976562 74.402344 54.382812 74.636719 C 54.785156 74.875 55.222656 74.992188 55.6875 74.988281 C 56.15625 74.988281 56.59375 74.871094 56.996094 74.632812 C 57.402344 74.390625 57.71875 74.066406 57.945312 73.652344 L 60.652344 68.835938 C 60.730469 68.691406 60.855469 68.621094 61.019531 68.617188 L 66.484375 68.652344 L 66.507812 68.652344 C 66.976562 68.652344 67.410156 68.535156 67.816406 68.296875 C 68.21875 68.0625 68.539062 67.738281 68.773438 67.328125 C 69.003906 66.917969 69.121094 66.476562 69.121094 66.003906 C 69.121094 65.53125 69.003906 65.089844 68.769531 64.679688 L 61.1875 51.359375 L 62.832031 50.140625 L 66.1875 39.667969 L 62.839844 29.199219 L 54.050781 22.726562 L 43.195312 22.726562 L 34.417969 29.199219 L 31.046875 39.667969 L 34.402344 50.136719 L 36.066406 51.359375 L 28.46875 64.679688 C 28.234375 65.089844 28.117188 65.53125 28.117188 66.003906 C 28.117188 66.476562 28.234375 66.917969 28.464844 67.328125 C 28.699219 67.738281 29.015625 68.058594 29.421875 68.296875 C 29.824219 68.535156 30.257812 68.652344 30.726562 68.652344 Z M 66.875 65.792969 C 66.960938 65.933594 66.960938 66.074219 66.875 66.21875 C 66.800781 66.363281 66.679688 66.433594 66.515625 66.429688 L 61.050781 66.394531 C 60.582031 66.394531 60.144531 66.515625 59.738281 66.753906 C 59.332031 66.992188 59.011719 67.320312 58.777344 67.730469 L 56.074219 72.550781 C 55.996094 72.695312 55.878906 72.765625 55.714844 72.765625 C 55.550781 72.765625 55.429688 72.695312 55.347656 72.550781 L 49.886719 63.007812 L 53.53125 56.613281 L 54.050781 56.613281 L 59.402344 52.671875 Z M 33.351562 39.660156 L 36.269531 30.570312 L 43.902344 24.949219 L 53.34375 24.949219 L 60.980469 30.570312 L 63.894531 39.667969 L 60.972656 48.761719 L 53.34375 54.386719 L 43.902344 54.386719 L 36.269531 48.761719 Z M 30.367188 65.792969 L 37.839844 52.671875 L 43.195312 56.609375 L 50.996094 56.609375 L 41.917969 72.550781 C 41.839844 72.695312 41.714844 72.769531 41.550781 72.765625 C 41.386719 72.765625 41.269531 72.695312 41.191406 72.550781 L 38.484375 67.730469 C 38.25 67.316406 37.929688 66.992188 37.523438 66.753906 C 37.117188 66.515625 36.679688 66.394531 36.210938 66.394531 L 36.195312 66.394531 L 30.730469 66.429688 C 30.570312 66.429688 30.449219 66.359375 30.367188 66.21875 C 30.285156 66.074219 30.285156 65.933594 30.367188 65.792969 Z M 30.367188 65.792969 " fill-opacity="1" fill-rule="nonzero"/></g></svg>