<svg xmlns="http://www.w3.org/2000/svg" xmlns:xlink="http://www.w3.org/1999/xlink" width="500" zoomAndPan="magnify" viewBox="0 0 375 374.999991" height="500" preserveAspectRatio="xMidYMid meet" version="1.0"><defs><clipPath id="id1"><path d="M 12.75 12.75 L 365.71875 12.75 L 365.71875 365.71875 L 12.75 365.71875 Z M 12.75 12.75 " clip-rule="nonzero"/></clipPath><clipPath id="id2"><path d="M 91 90.355469 L 285.566406 90.355469 L 285.566406 284.605469 L 91 284.605469 Z M 91 90.355469 " clip-rule="nonzero"/></clipPath></defs><g clip-path="url(#id1)"><path fill="#ffc20b" d="M 189.234375 365.71875 C 142.113281 365.71875 97.746094 347.378906 64.453125 314.015625 C 31.089844 280.71875 12.75 236.351562 12.75 189.234375 C 12.75 142.113281 31.089844 97.746094 64.453125 64.453125 C 97.746094 31.089844 142.113281 12.75 189.234375 12.75 C 236.351562 12.75 280.71875 31.089844 314.015625 64.453125 C 347.378906 97.816406 365.71875 142.113281 365.71875 189.234375 C 365.71875 236.351562 347.378906 280.71875 314.015625 314.015625 C 280.71875 347.378906 236.351562 365.71875 189.234375 365.71875 Z M 189.234375 23.332031 C 144.9375 23.332031 103.25 40.613281 71.929688 71.929688 C 40.613281 103.25 23.332031 144.9375 23.332031 189.234375 C 23.332031 233.53125 40.613281 275.21875 71.929688 306.535156 C 103.25 337.855469 144.9375 355.136719 189.234375 355.136719 C 233.53125 355.136719 275.21875 337.855469 306.535156 306.535156 C 337.855469 275.21875 355.136719 233.53125 355.136719 189.234375 C 355.136719 144.9375 337.855469 103.25 306.535156 71.929688 C 275.21875 40.613281 233.53125 23.332031 189.234375 23.332031 Z M 189.234375 23.332031 " fill-opacity="1" fill-rule="nonzero"/></g><g clip-path="url(#id2)"><path fill="#ffc20b" d="M 277.867188 92.214844 C 275.898438 93.238281 235.578125 114.113281 188.265625 138.664062 C 140.949219 163.175781 101.195312 183.824219 99.949219 184.507812 C 90.152344 189.921875 89.09375 199.585938 97.753906 205.078125 C 98.773438 205.6875 107.777344 209.738281 117.835938 214.058594 C 131.152344 219.742188 136.332031 221.789062 136.9375 221.597656 C 139.398438 220.878906 140.265625 218.1875 138.601562 216.40625 C 138.074219 215.800781 131.339844 212.730469 119.691406 207.769531 C 107.097656 202.386719 101.121094 199.660156 100.101562 198.789062 C 97.566406 196.628906 97.792969 193.902344 100.667969 191.703125 C 101.386719 191.171875 136.484375 172.796875 178.695312 150.9375 C 220.867188 129.039062 257.179688 110.210938 259.371094 109.074219 L 263.34375 106.988281 L 260.886719 109.453125 C 259.523438 110.777344 232.894531 136.199219 201.691406 165.941406 C 170.488281 195.644531 144.65625 220.34375 144.277344 220.839844 C 143.59375 221.671875 143.558594 223.226562 143.558594 251.90625 C 143.558594 278.804688 143.632812 282.175781 144.164062 283.011719 C 144.84375 284.070312 146.960938 284.601562 148.019531 284.035156 C 148.4375 283.808594 156.265625 276.078125 165.457031 266.832031 C 180.699219 251.527344 182.214844 249.9375 182.214844 248.800781 C 182.214844 247.019531 180.773438 245.691406 178.921875 245.691406 C 177.5625 245.691406 177.070312 246.109375 168.671875 254.484375 L 159.820312 263.308594 L 162.015625 259.140625 C 163.226562 256.832031 166.707031 250.351562 169.734375 244.667969 L 175.21875 234.363281 L 225.484375 170.675781 C 253.132812 135.671875 275.789062 107.066406 275.902344 107.140625 C 276.203125 107.484375 246.023438 249.367188 245.304688 250.882812 C 244.207031 253.230469 242.695312 254.179688 239.707031 254.332031 C 237.246094 254.484375 237.132812 254.441406 211.035156 244.214844 C 196.625 238.570312 184.410156 233.949219 183.878906 233.949219 C 181.609375 233.949219 180.210938 237.394531 181.761719 239.175781 C 182.632812 240.273438 233.882812 260.316406 237.023438 260.808594 C 243.035156 261.792969 248.558594 258.992188 251.167969 253.609375 C 251.960938 252.019531 255.820312 234.363281 268.679688 173.519531 C 277.757812 130.59375 285.246094 94.828125 285.359375 94.070312 C 285.550781 92.859375 285.398438 92.519531 284.414062 91.496094 C 283.769531 90.851562 282.863281 90.359375 282.335938 90.359375 C 281.800781 90.359375 279.796875 91.191406 277.867188 92.214844 Z M 250.21875 128.890625 C 249.917969 129.269531 231.683594 152.339844 209.710938 180.1875 L 169.808594 230.800781 L 159.933594 249.328125 L 150.0625 267.855469 L 150.0625 224.136719 L 200.292969 176.207031 C 227.902344 149.839844 250.558594 128.246094 250.636719 128.246094 C 250.710938 128.246094 250.519531 128.546875 250.21875 128.890625 Z M 250.21875 128.890625 " fill-opacity="1" fill-rule="nonzero"/></g></svg>