<svg xmlns="http://www.w3.org/2000/svg" xmlns:xlink="http://www.w3.org/1999/xlink" width="130" zoomAndPan="magnify" viewBox="0 0 97.5 97.499997" height="130" preserveAspectRatio="xMidYMid meet" version="1.0"><defs><clipPath id="id1"><path d="M 2.6875 2.6875 L 94.738281 2.6875 L 94.738281 94.738281 L 2.6875 94.738281 Z M 2.6875 2.6875 " clip-rule="nonzero"/></clipPath><clipPath id="id2"><path d="M 34.863281 25.605469 L 62.613281 25.605469 L 62.613281 72 L 34.863281 72 Z M 34.863281 25.605469 " clip-rule="nonzero"/></clipPath></defs><g clip-path="url(#id1)"><path fill="#1d95d2" d="M 48.714844 94.738281 C 36.425781 94.738281 24.855469 89.957031 16.171875 81.253906 C 7.46875 72.574219 2.6875 61 2.6875 48.714844 C 2.6875 36.425781 7.46875 24.855469 16.171875 16.171875 C 24.855469 7.46875 36.425781 2.6875 48.714844 2.6875 C 61 2.6875 72.574219 7.46875 81.253906 16.171875 C 89.957031 24.871094 94.738281 36.425781 94.738281 48.714844 C 94.738281 61 89.957031 72.574219 81.253906 81.253906 C 72.574219 89.957031 61 94.738281 48.714844 94.738281 Z M 48.714844 5.445312 C 37.160156 5.445312 26.289062 9.953125 18.121094 18.121094 C 9.953125 26.289062 5.445312 37.160156 5.445312 48.714844 C 5.445312 60.265625 9.953125 71.136719 18.121094 79.304688 C 26.289062 87.472656 37.160156 91.980469 48.714844 91.980469 C 60.265625 91.980469 71.136719 87.472656 79.304688 79.304688 C 87.472656 71.136719 91.980469 60.265625 91.980469 48.714844 C 91.980469 37.160156 87.472656 26.289062 79.304688 18.121094 C 71.136719 9.953125 60.265625 5.445312 48.714844 5.445312 Z M 48.714844 5.445312 " fill-opacity="1" fill-rule="nonzero"/></g><g clip-path="url(#id2)"><path fill="#1d95d2" d="M 51.132812 41.542969 C 51 41.78125 51.007812 42.070312 51.144531 42.304688 C 51.28125 42.539062 51.535156 42.683594 51.804688 42.683594 L 61.003906 42.683594 L 39.824219 70.429688 C 39.800781 70.433594 39.761719 70.410156 39.761719 70.363281 L 47.160156 49.882812 C 47.242188 49.648438 47.210938 49.382812 47.066406 49.179688 C 46.921875 48.972656 46.6875 48.851562 46.4375 48.851562 L 36.472656 48.851562 L 44.34375 27.269531 L 58.9375 27.269531 Z M 60.261719 26.484375 C 59.980469 26.011719 59.488281 25.730469 58.9375 25.730469 L 44.34375 25.730469 C 43.699219 25.730469 43.121094 26.136719 42.902344 26.738281 L 35.03125 48.316406 C 34.859375 48.789062 34.929688 49.320312 35.214844 49.734375 C 35.5 50.144531 35.972656 50.390625 36.472656 50.390625 L 45.34375 50.390625 L 38.320312 69.835938 C 38.050781 70.585938 38.347656 71.386719 39.046875 71.769531 C 39.296875 71.910156 39.558594 71.972656 39.820312 71.972656 C 40.289062 71.972656 40.746094 71.753906 41.058594 71.347656 L 62.21875 43.621094 C 62.574219 43.152344 62.636719 42.53125 62.375 42 C 62.117188 41.472656 61.589844 41.144531 61 41.144531 L 53.101562 41.144531 L 60.28125 28.015625 C 60.546875 27.53125 60.539062 26.960938 60.261719 26.484375 " fill-opacity="1" fill-rule="nonzero"/></g></svg>