<svg xmlns="http://www.w3.org/2000/svg" xmlns:xlink="http://www.w3.org/1999/xlink" width="500" zoomAndPan="magnify" viewBox="0 0 375 374.999991" height="500" preserveAspectRatio="xMidYMid meet" version="1.0"><defs><clipPath id="id1"><path d="M 12.75 12.75 L 365.71875 12.75 L 365.71875 365.71875 L 12.75 365.71875 Z M 12.75 12.75 " clip-rule="nonzero"/></clipPath><clipPath id="id2"><path d="M 64.707031 111.722656 L 313.707031 111.722656 L 313.707031 266.972656 L 64.707031 266.972656 Z M 64.707031 111.722656 " clip-rule="nonzero"/></clipPath></defs><g clip-path="url(#id1)"><path fill="#ff750b" d="M 189.234375 365.71875 C 142.113281 365.71875 97.746094 347.378906 64.453125 314.015625 C 31.089844 280.71875 12.75 236.351562 12.75 189.234375 C 12.75 142.113281 31.089844 97.746094 64.453125 64.453125 C 97.746094 31.089844 142.113281 12.75 189.234375 12.75 C 236.351562 12.75 280.71875 31.089844 314.015625 64.453125 C 347.378906 97.816406 365.71875 142.113281 365.71875 189.234375 C 365.71875 236.351562 347.378906 280.71875 314.015625 314.015625 C 280.71875 347.378906 236.351562 365.71875 189.234375 365.71875 Z M 189.234375 23.332031 C 144.9375 23.332031 103.25 40.613281 71.929688 71.929688 C 40.613281 103.25 23.332031 144.9375 23.332031 189.234375 C 23.332031 233.53125 40.613281 275.21875 71.929688 306.535156 C 103.25 337.855469 144.9375 355.136719 189.234375 355.136719 C 233.53125 355.136719 275.21875 337.855469 306.535156 306.535156 C 337.855469 275.21875 355.136719 233.53125 355.136719 189.234375 C 355.136719 144.9375 337.855469 103.25 306.535156 71.929688 C 275.21875 40.613281 233.53125 23.332031 189.234375 23.332031 Z M 189.234375 23.332031 " fill-opacity="1" fill-rule="nonzero"/></g><g clip-path="url(#id2)"><path fill="#ff750b" d="M 276.113281 152.609375 L 274.976562 131.355469 L 302.699219 152.609375 Z M 275.03125 158.203125 L 303.621094 158.203125 L 241.050781 214.125 Z M 103.398438 158.203125 L 137.378906 214.113281 L 74.816406 158.203125 Z M 102.324219 152.609375 L 75.730469 152.609375 L 103.453125 131.355469 Z M 154.230469 127.824219 L 132.84375 117.3125 L 176.664062 117.3125 Z M 224.195312 127.824219 L 201.769531 117.3125 L 245.582031 117.3125 Z M 236.605469 158.203125 L 266.960938 158.203125 L 210.726562 217.101562 Z M 189.21875 172.128906 L 198.976562 230.175781 L 189.21875 256.261719 L 179.457031 230.183594 Z M 141.820312 158.203125 L 167.710938 217.109375 L 111.46875 158.203125 Z M 141.816406 152.609375 L 116.847656 152.609375 L 148.640625 136.804688 Z M 180.355469 152.609375 L 147.859375 152.609375 L 155.402344 135.15625 Z M 189.21875 152.003906 L 159.757812 131.402344 L 189.21875 117.597656 L 218.675781 131.402344 Z M 223.027344 135.15625 L 230.574219 152.609375 L 198.078125 152.609375 Z M 175.40625 220.835938 L 147.886719 158.203125 L 185.9375 158.203125 Z M 192.5 158.203125 L 230.542969 158.203125 L 203.027344 220.84375 Z M 236.625 152.609375 L 229.785156 136.804688 L 261.585938 152.609375 Z M 269.191406 126.917969 L 270.464844 150.789062 L 230.523438 130.9375 L 257.28125 117.78125 Z M 121.148438 117.78125 L 147.90625 130.9375 L 107.96875 150.789062 L 109.234375 126.917969 Z M 151.609375 226.832031 L 120.636719 175.863281 L 174.203125 231.976562 L 182.671875 254.589844 Z M 195.765625 254.59375 L 204.214844 231.984375 L 257.804688 175.863281 L 226.816406 226.84375 Z M 313.449219 156.546875 C 313.453125 156.53125 313.464844 156.519531 313.480469 156.5 C 313.621094 156.164062 313.703125 155.796875 313.703125 155.40625 C 313.703125 155.386719 313.691406 155.371094 313.691406 155.351562 C 313.691406 155.332031 313.695312 155.316406 313.695312 155.304688 C 313.695312 155.195312 313.640625 155.105469 313.621094 155.003906 C 313.578125 154.726562 313.53125 154.460938 313.414062 154.214844 C 313.355469 154.089844 313.265625 153.992188 313.191406 153.878906 C 313.046875 153.667969 312.902344 153.472656 312.710938 153.308594 C 312.667969 153.269531 312.648438 153.214844 312.601562 153.179688 L 259.277344 112.285156 C 259.070312 112.128906 258.839844 112.019531 258.605469 111.925781 C 258.5625 111.910156 258.535156 111.882812 258.492188 111.867188 C 258.207031 111.769531 257.902344 111.71875 257.605469 111.71875 L 120.832031 111.71875 C 120.527344 111.71875 120.222656 111.769531 119.933594 111.867188 C 119.90625 111.878906 119.882812 111.902344 119.851562 111.914062 C 119.605469 112.007812 119.367188 112.125 119.15625 112.285156 L 65.828125 153.179688 C 65.78125 153.214844 65.761719 153.269531 65.71875 153.3125 C 65.527344 153.472656 65.386719 153.667969 65.246094 153.875 C 65.167969 153.988281 65.078125 154.089844 65.019531 154.214844 C 64.90625 154.457031 64.859375 154.71875 64.816406 154.984375 C 64.800781 155.09375 64.738281 155.1875 64.730469 155.304688 C 64.730469 155.320312 64.742188 155.332031 64.742188 155.351562 C 64.742188 155.371094 64.730469 155.386719 64.730469 155.40625 C 64.730469 155.796875 64.8125 156.164062 64.957031 156.5 C 64.964844 156.523438 64.984375 156.539062 64.996094 156.5625 C 65.148438 156.894531 65.359375 157.191406 65.621094 157.4375 C 65.640625 157.453125 65.644531 157.484375 65.667969 157.5 L 147.5625 230.6875 C 147.566406 230.691406 147.574219 230.695312 147.578125 230.699219 L 187.382812 266.273438 C 187.421875 266.308594 187.464844 266.316406 187.507812 266.347656 C 187.683594 266.488281 187.875 266.601562 188.078125 266.695312 C 188.105469 266.707031 188.125 266.726562 188.152344 266.738281 C 188.1875 266.753906 188.207031 266.78125 188.238281 266.796875 C 188.242188 266.796875 188.242188 266.796875 188.242188 266.796875 C 188.269531 266.804688 188.296875 266.804688 188.316406 266.8125 C 188.605469 266.914062 188.910156 266.976562 189.21875 266.976562 C 189.53125 266.976562 189.828125 266.914062 190.117188 266.8125 C 190.148438 266.804688 190.167969 266.804688 190.191406 266.796875 C 190.195312 266.796875 190.195312 266.796875 190.195312 266.796875 C 190.230469 266.78125 190.253906 266.753906 190.28125 266.738281 C 190.3125 266.726562 190.332031 266.707031 190.363281 266.691406 C 190.5625 266.597656 190.753906 266.488281 190.925781 266.347656 C 190.96875 266.320312 191.019531 266.308594 191.054688 266.273438 L 312.765625 157.5 C 312.789062 157.484375 312.792969 157.453125 312.816406 157.4375 C 313.082031 157.183594 313.292969 156.886719 313.449219 156.546875 " fill-opacity="1" fill-rule="nonzero"/></g></svg>